<svg width="22.000000" height="16.000000" viewBox="0 0 22 16" fill="none" xmlns="http://www.w3.org/2000/svg" xmlns:xlink="http://www.w3.org/1999/xlink">
	<desc>
			Created with Pixso.
	</desc>
	<defs/>
	<path id="icon" d="M19 0C20.6567 0 22 1.34314 22 3L22 13C22 14.6569 20.6567 16 19 16L3 16C1.34326 16 0 14.6569 0 13L0 3C0 1.34314 1.34326 0 3 0L19 0ZM18.2529 2L3.74707 2L10.3804 7.23669C10.7437 7.52356 11.2563 7.52356 11.6196 7.23669L18.2529 2ZM2 3.16882L2 13C2 13.5522 2.44775 14 3 14L19 14C19.5522 14 20 13.5522 20 13L20 3.16882L12.8589 8.80652C11.769 9.66699 10.231 9.66699 9.14111 8.80652L2 3.16882Z" fill="#151618" fill-opacity="1.000000" fill-rule="evenodd"/>
</svg>
