<svg width="22.000000" height="18.000000" viewBox="0 0 22 18" fill="none" xmlns="http://www.w3.org/2000/svg" xmlns:xlink="http://www.w3.org/1999/xlink">
	<desc>
			Created with Pixso.
	</desc>
	<defs/>
	<path id="icon" d="M18.783 1.20312C19.1313 1.12341 19.3745 1.04517 19.5735 0.962891C19.8525 0.847656 20.0837 0.709473 20.4492 0.476929C20.7563 0.281494 21.1499 0.264526 21.4739 0.432617C21.7981 0.60083 22 0.927002 22 1.28186C22 2.32422 21.8655 3.17859 21.5535 3.93042C21.2913 4.56274 20.9226 5.07642 20.4817 5.54395C20.2954 8.78735 19.322 11.3342 17.8337 13.2639C16.291 15.2637 14.2388 16.5444 12.0752 17.2617C9.91797 17.9768 7.63867 18.1367 5.59668 17.8945C3.56812 17.6541 1.69312 17.0063 0.38623 16.0259C0.0283203 15.7576 -0.0976562 15.2905 0.0795898 14.8879C0.256836 14.4854 0.692627 14.2483 1.1416 14.3101C2.42749 14.4873 3.66528 14.2053 4.68335 13.8022C4.48291 13.697 4.29395 13.5833 4.11841 13.4661C3.19092 12.8469 2.44238 12.0063 2.10571 11.3567C1.96631 11.0879 1.96484 10.7717 2.10181 10.5017C2.17236 10.3623 2.27563 10.2437 2.40112 10.1531C1.04688 9.0752 0.5 7.58447 0.5 6.58569C0.5 6.28882 0.641846 6.0083 0.884766 5.82568C0.986816 5.74878 1.10181 5.69287 1.22314 5.65918C1.12183 5.3728 1.04321 5.08374 0.983154 4.80396C0.717529 3.56287 0.740967 2.16223 1.03003 1.04797C1.12866 0.666626 1.45776 0.381348 1.86133 0.326782C2.26489 0.272217 2.6626 0.459473 2.86621 0.799927C3.94385 2.60095 5.93115 3.7019 7.78101 4.354C8.65063 4.66064 9.45605 4.85596 10.0598 4.97607C10.1899 3.79907 10.5308 2.82837 11.054 2.05737C11.7439 1.04016 12.7065 0.438354 13.7402 0.170044C15.5227 -0.292725 17.501 0.234497 18.783 1.20312ZM9.74854 6.8833C9.06348 6.75073 8.12183 6.52783 7.09424 6.16553C5.73706 5.68701 4.16089 4.94092 2.84082 3.78516C2.8645 3.9978 2.89795 4.20874 2.94189 4.41382C3.16309 5.44702 3.57422 6.02563 3.94727 6.20532C4.40356 6.42529 4.61499 6.94116 4.43799 7.40259C4.19824 8.0271 3.56812 8.07837 2.99561 7.94043C3.45605 8.6062 4.28394 9.27002 5.66455 9.49194C6.14062 9.56836 6.49219 9.96216 6.5 10.4277C6.50781 10.8931 6.16968 11.2974 5.69629 11.3887L4.82568 11.5566C4.95898 11.6682 5.10303 11.7778 5.25684 11.8804C5.95361 12.3457 6.65332 12.5464 7.25757 12.4006C7.70996 12.2915 8.18066 12.4985 8.3916 12.8997C8.60278 13.3005 8.49854 13.7891 8.14014 14.0771C7.49634 14.594 6.74438 15.0085 5.99072 15.3528C5.63672 15.5144 5.24146 15.6741 4.81201 15.8145C5.14233 15.8823 5.48584 15.9382 5.84082 15.9802C7.61133 16.1902 9.58228 16.0486 11.425 15.4377C13.2615 14.8291 14.959 13.7593 16.229 12.1128C17.4971 10.4685 18.3821 8.19312 18.5007 5.10352C18.51 4.86035 18.6145 4.62939 18.793 4.45728C19.2427 4.02368 19.6143 3.52673 19.7971 2.93518C19.4771 3.03125 19.1169 3.1145 18.6877 3.1936C18.3623 3.25366 18.0273 3.1543 17.793 2.92834C17.0283 2.19104 15.5164 1.7063 14.26 2.03247C13.6687 2.18591 13.1311 2.51831 12.7275 3.11328C12.3154 3.72083 12 4.66724 12 6.10352C12 6.37646 11.8801 6.63647 11.6702 6.81934C11.1721 7.25293 10.334 6.99658 9.74854 6.8833Z" fill="#0F0F0F" fill-opacity="1.000000" fill-rule="evenodd"/>
</svg>
