<svg width="20.805176" height="20.805054" viewBox="0 0 20.8052 20.8051" fill="none" xmlns="http://www.w3.org/2000/svg" xmlns:xlink="http://www.w3.org/1999/xlink">
	<desc>
			Created with Pixso.
	</desc>
	<defs/>
	<path id="icon" d="M15.6675 20.7244C13.6475 20.2183 9.51196 18.7915 5.7627 15.0424C2.01367 11.2932 0.58667 7.15771 0.0805664 5.13757C-0.210205 3.97668 0.313477 2.85645 1.20166 2.22205L3.53003 0.559082C4.89233 -0.41394 6.78735 -0.0838623 7.74023 1.2926L9.20605 3.40991C9.82812 4.30859 9.61353 5.54041 8.72412 6.17578L7.55542 7.01062C7.73218 7.68726 8.28247 9.07666 10.0054 10.7997C11.7285 12.5227 13.1179 13.0729 13.7944 13.2498L14.6294 12.0809C15.2646 11.1915 16.4963 10.9768 17.3953 11.5991L19.5125 13.0648C20.8889 14.0178 21.219 15.9128 20.2461 17.2751L18.583 19.6034C17.9487 20.4916 16.8284 21.0153 15.6675 20.7244ZM7.177 13.6282C10.5864 17.0375 14.3489 18.3322 16.1536 18.7844C16.4172 18.8505 16.7363 18.7479 16.9556 18.4409L18.6187 16.1127C18.9429 15.6586 18.8328 15.0269 18.374 14.7092L16.2568 13.2434L15.3608 14.4977C14.9949 15.0103 14.3176 15.4124 13.5293 15.2422C12.5452 15.0299 10.7263 14.349 8.59106 12.2139C6.45605 10.0789 5.77515 8.25989 5.56274 7.27588C5.39282 6.48743 5.79468 5.8103 6.30737 5.44421L7.56152 4.54834L6.09595 2.43103C5.77832 1.97229 5.14648 1.86218 4.69238 2.18652L2.36426 3.84961C2.05713 4.06885 1.95459 4.38782 2.02075 4.65161C2.4729 6.4563 3.76758 10.2188 7.177 13.6282Z" fill="#151618" fill-opacity="1.000000" fill-rule="evenodd"/>
</svg>
