<svg width="22.000000" height="22.000000" viewBox="0 0 22 22" fill="none" xmlns="http://www.w3.org/2000/svg" xmlns:xlink="http://www.w3.org/1999/xlink">
	<desc>
			Created with Pixso.
	</desc>
	<defs/>
	<path id="icon" d="M19 0C20.6567 0 22 1.34314 22 3L22 19C22 20.6567 20.6567 22 19 22L3 22C1.34326 22 0 20.6567 0 19L0 3C0 1.34314 1.34326 0 3 0L19 0ZM19 2C19.5522 2 20 2.44775 20 3L20 19C20 19.5522 19.5522 20 19 20L14 20L14 13L16.0762 13C16.5066 13 16.8887 12.7246 17.0249 12.3162L17.4678 10.9871C17.6296 10.5015 17.2683 10 16.7563 10L14 10L14 8C14 7.5 14.5 7 15 7L17 7C17.5522 7 18 6.55225 18 5.99988L18 5.31396C18 4.99097 17.7937 4.70129 17.4814 4.6189C16.1707 4.27295 15 4.27295 15 4.27295C12.5 4.27295 11 5.99988 11 7.5L11 10L9 10C8.44775 10 8 10.4478 8 11L8 12C8 12.5522 8.44775 13 9 13L11 13L11 20L3 20C2.44775 20 2 19.5522 2 19L2 3C2 2.44775 2.44775 2 3 2L19 2Z" fill="#151618" fill-opacity="1.000000" fill-rule="evenodd"/>
</svg>
