<svg width="22.000000" height="22.000000" viewBox="0 0 22 22" fill="none" xmlns="http://www.w3.org/2000/svg" xmlns:xlink="http://www.w3.org/1999/xlink">
	<desc>
			Created with Pixso.
	</desc>
	<defs/>
	<path id="icon" d="M0 9.6001C0 6.23975 0 4.55957 0.654053 3.276C1.22925 2.14709 2.14697 1.22925 3.27612 0.653931C4.55957 0 6.23975 0 9.6001 0L12.3999 0C15.7603 0 17.4404 0 18.7239 0.653931C19.853 1.22925 20.7708 2.14709 21.3459 3.276C22 4.55957 22 6.23975 22 9.6001L22 12.3999C22 15.7603 22 17.4404 21.3459 18.7239C20.7708 19.853 19.853 20.7708 18.7239 21.3459C17.4404 22 15.7603 22 12.3999 22L9.6001 22C6.23975 22 4.55957 22 3.27612 21.3459C2.14697 20.7708 1.22925 19.853 0.654053 18.7239C0 17.4404 0 15.7603 0 12.3999L0 9.6001ZM9.6001 2L12.3999 2C14.113 2 15.2778 2.00159 16.178 2.07507C17.0547 2.14673 17.5032 2.27661 17.8159 2.43591C18.5686 2.81946 19.1804 3.4314 19.564 4.18408C19.7234 4.49683 19.8533 4.94519 19.9248 5.82202C19.9985 6.72217 20 7.88696 20 9.6001L20 12.3999C20 14.113 19.9985 15.2778 19.9248 16.178C19.8533 17.0547 19.7234 17.5032 19.564 17.8159C19.1804 18.5686 18.5686 19.1804 17.8159 19.564C17.5032 19.7234 17.0547 19.8533 16.178 19.9248C15.2778 19.9985 14.113 20 12.3999 20L9.6001 20C7.88672 20 6.72217 19.9985 5.82202 19.9248C4.94531 19.8533 4.49683 19.7234 4.18408 19.564C3.4314 19.1804 2.81958 18.5686 2.43604 17.8159C2.27661 17.5032 2.14673 17.0547 2.0752 16.178C2.00146 15.2778 2 14.113 2 12.3999L2 9.6001C2 7.88672 2.00146 6.72217 2.0752 5.82202C2.14673 4.94519 2.27661 4.49683 2.43604 4.18408C2.81958 3.4314 3.4314 2.81946 4.18408 2.43591C4.49683 2.27661 4.94531 2.14673 5.82202 2.07507C6.72217 2.00159 7.88696 2 9.6001 2ZM17 4C16.4478 4 16 4.44775 16 5C16 5.55225 16.4478 6 17 6C17.5522 6 18 5.55225 18 5C18 4.44775 17.5522 4 17 4ZM11 17C14.3137 17 17 14.3137 17 11C17 7.68628 14.3137 5 11 5C7.68628 5 5 7.68628 5 11C5 14.3137 7.68628 17 11 17ZM11 15C13.2092 15 15 13.2092 15 11C15 8.79077 13.2092 7 11 7C8.79077 7 7 8.79077 7 11C7 13.2092 8.79077 15 11 15Z" fill="#0F0F0F" fill-opacity="1.000000" fill-rule="evenodd"/>
</svg>
