<svg width="54.996582" height="72.000366" viewBox="0 0 54.9966 72.0004" fill="none" xmlns="http://www.w3.org/2000/svg" xmlns:xlink="http://www.w3.org/1999/xlink">
	<desc>
			Created with Pixso.
	</desc>
	<defs/>
	<path id="Vector" d="M35.1667 1.09216C34.6121 1.71094 33.2974 3.02112 32.2478 4.02808C28.75 7.35229 28.0383 8.54114 27.9419 11.2588C27.8694 13.4668 28.376 15.141 29.6907 17.0457C30.0405 17.5553 30.3301 17.9435 30.3301 17.8949C30.3301 17.8585 30.113 17.3854 29.8477 16.8516C28.8345 14.8134 28.533 12.3385 29.0876 10.5793C29.6064 8.92944 30.3662 7.93457 32.9353 5.54456C33.4783 5.04724 34.1416 4.35571 34.4189 4.02808L34.9377 3.42151L34.8652 5.96924C34.8291 7.65552 34.7446 8.82019 34.6121 9.42688C34.1658 11.4772 33.2974 13.1028 31.7173 14.8862C30.5713 16.1843 30.2456 16.9243 30.5593 17.531C30.6074 17.6401 30.6919 18.1012 30.7402 18.538L30.8125 19.3386L30.125 19.7997C27.7971 21.3525 26.1567 23.5969 25.4934 26.1447C25.3123 26.8241 25.24 27.4791 25.24 28.5347C25.228 30.7791 25.6379 32.6473 26.6753 35.001L27.218 36.2384L27.0251 37.209C26.8323 38.1917 26.7717 41.1155 26.9407 41.8798C27.001 42.1831 27.0735 42.2438 27.375 42.2438L27.7368 42.2438L27.8213 40.6787C28.1348 35.098 29.9683 31.8588 34.2742 29.2747C37.5913 27.285 38.5684 26.1689 40.7756 21.85C42.5125 18.4166 43.0674 17.5067 44.406 15.7719L45.166 14.7892L44.0925 15.2501C42.3557 16.0023 39.8589 16.7545 36.8435 17.434C33.9485 18.0769 32.6338 18.453 31.6328 18.9625C31.3191 19.1202 31.0295 19.2537 30.9934 19.2537C30.9573 19.2537 30.9453 18.7684 30.9814 18.1619C31.0417 16.8638 31.0537 16.8395 32.9233 14.874C33.9365 13.8186 34.3586 13.2605 34.7085 12.569C35.4805 11.0282 35.5408 10.5793 35.4563 7.60706C35.3718 4.81665 35.5166 2.99695 35.999 0.970825C36.1196 0.449219 36.2163 0.0124512 36.2041 0.000244141C36.1921 -0.0118408 35.7217 0.485596 35.1667 1.09216ZM40.7273 20.1151C38.303 24.6039 36.6143 26.5087 32.7424 29.1412C31.9824 29.663 31.0898 30.3181 30.7644 30.585C29.5701 31.5798 28.2073 33.5452 27.6885 35.0132C27.5679 35.365 27.4353 35.6075 27.3992 35.5469C27.2061 35.2437 26.6875 32.7687 26.5669 31.6162C26.1687 27.7946 27.5801 24.4462 30.5471 22.2018C32.2478 20.9037 33.7917 20.3092 36.9038 19.739C38.2305 19.4963 40.3413 18.8776 41.2458 18.4773C41.4509 18.3923 41.6199 18.3317 41.644 18.3439C41.656 18.356 41.2458 19.1566 40.7273 20.1151Z" fill="#151618" fill-opacity="1.000000" fill-rule="nonzero"/>
	<path id="Vector" d="M13.9441 4.12268C14.6633 6.8562 14.8792 10.4401 14.5315 13.7931C14.0999 17.9723 14.4595 19.2357 17.0251 22.6738C17.7207 23.5972 18.5 24.7998 18.7756 25.3344C19.5549 26.9259 19.9746 29.1855 19.9866 31.9069L19.9866 33.0366L19.6987 32.9152C19.0273 32.66 17.8164 32.5508 14.7712 32.49C12.9968 32.4535 11.1626 32.3685 10.6951 32.3199C10.2393 32.2592 9.84375 32.2349 9.83179 32.2469C9.80786 32.2592 10.0476 32.4535 10.3713 32.6843C11.7261 33.6685 13.0928 34.944 14.6753 36.7056C15.6106 37.7383 16.7256 38.8802 17.1692 39.2325C19.0635 40.7511 21.2334 41.6379 23.8591 41.9539C24.938 42.0875 24.5063 41.6744 22.6841 40.8726C19.7827 39.5848 18.332 38.54 16.1021 36.1467C15.2629 35.2478 14.2437 34.288 13.8481 34.0085L13.1287 33.5226L14.5435 33.5226C18.26 33.5226 20.3582 34.2516 22.1445 36.1589C23.0317 37.0944 23.6672 38.2606 23.991 39.512C24.0869 39.9128 24.1948 40.2651 24.2307 40.3016C24.3506 40.411 24.3147 38.868 24.1829 38.0177C23.907 36.2561 22.5164 34.3123 20.9216 33.4619L20.2263 33.0974L20.2263 31.0929C20.2263 27.1082 19.8787 25.7352 18.0564 22.6252C15.6465 18.4946 15.2507 16.8667 15.3228 11.1447C15.3467 9.37097 15.3828 7.91309 15.3948 7.92529C15.3948 7.93738 15.6465 8.27759 15.9343 8.67847C16.2339 9.07935 17.301 10.2821 18.3201 11.3512C20.7898 13.9388 21.7371 15.4331 22.3245 17.6807C22.9839 20.1469 22.4443 23.5972 20.8857 26.9259C20.5979 27.5454 20.3821 28.0557 20.3943 28.0557C20.4182 28.0557 20.6221 27.7642 20.8618 27.3997C22.7441 24.5326 23.6912 21.301 23.5474 18.276C23.4634 16.6238 23.1396 15.3359 22.4563 13.9025C21.761 12.4203 20.9578 11.3755 18.6318 8.93359C16.8213 7.02625 15.5745 5.61694 14.2678 4.06201L13.7642 3.45447L13.9441 4.12268Z" fill="#151618" fill-opacity="1.000000" fill-rule="nonzero"/>
	<path id="Vector" d="M35.5635 33.8994C32.8096 34.4912 30.9373 36.955 30.9253 39.9741C30.9253 40.578 30.9011 40.6263 30.5508 40.7471C29.9229 40.9645 30.3818 41.0731 32.3264 41.1577C35.1045 41.2784 36.8076 40.9524 38.2568 40.0104C38.6555 39.7567 39.658 38.9476 40.4915 38.2109C42.1824 36.7375 43.052 36.1095 44.4773 35.3486L45.4316 34.8414L44.272 34.757C43.644 34.7207 42.5208 34.5637 41.7717 34.4309C41.0229 34.298 39.8391 34.0806 39.1387 33.9598C37.665 33.6942 36.6023 33.67 35.5635 33.8994ZM39.5493 35.4091C40.1411 35.554 41.0591 35.7111 41.5664 35.7472L42.5085 35.8318L41.1919 36.8945C39.187 38.5128 37.8584 39.2495 36.1553 39.6843C35.2856 39.9138 31.3962 40.5055 31.3118 40.421C31.2031 40.3123 31.5535 39.1892 31.9761 38.3075C32.7129 36.7738 34.1018 35.6748 35.8533 35.2279C36.7471 34.9984 38.1482 35.0709 39.5493 35.4091Z" fill="#151618" fill-opacity="1.000000" fill-rule="nonzero"/>
	<path id="Vector" d="M8.61841 47.1117C8.47339 53.6727 8.81201 55.8923 10.4443 59.1973C11.3027 60.929 12.6934 62.9534 13.6848 63.9047C13.9268 64.1364 14.1201 64.3558 14.1201 64.3925C14.1201 64.4412 11.1094 64.4534 7.44556 64.429C3.76953 64.4047 0.637939 64.429 0.480713 64.4656C0.335693 64.5022 0.14209 64.6729 0.0695801 64.8314C-0.0393066 65.0875 -0.0270996 65.173 0.154297 65.3802C0.371826 65.6241 0.504883 65.6241 27.4453 65.6241C45.8853 65.6241 54.5916 65.5875 54.7607 65.5022C55.0752 65.3314 55.0752 64.6973 54.7607 64.5266C54.6035 64.4534 52.1125 64.4047 47.4937 64.4047L40.4683 64.4047L41.2058 63.5144C43.3098 61.0143 44.6763 58.2704 45.571 54.7703C45.825 53.8069 45.8491 53.3922 45.8853 48.5142L45.9458 43.3068L27.3245 43.3068L8.70312 43.3068L8.61841 47.1117Z" fill="#151618" fill-opacity="1.000000" fill-rule="nonzero"/>
	<path id="Vector" d="M3.59961 67.275C7.68555 69.215 13.9834 70.7957 19.8584 71.3585C20.8979 71.4663 21.3694 71.5502 21.188 71.598C20.9341 71.6699 20.9221 71.6819 21.1277 71.6938C21.2605 71.7058 22.0825 71.7657 22.9409 71.8375C27.365 72.1609 36.8423 71.9692 36.5764 71.5502C36.54 71.4902 36.5522 71.4663 36.6248 71.5022C36.6851 71.5382 36.9028 71.5262 37.0962 71.4663C37.4346 71.3705 37.4346 71.3705 36.9631 71.3466C36.6731 71.3346 37.2896 71.1909 38.4741 70.9873C42.1611 70.3646 45.1953 69.6102 47.6853 68.7001C49.1118 68.1732 51.8799 66.9757 52.0735 66.7841C52.1338 66.7242 42.6929 66.6763 27.2925 66.6884L2.39087 66.7003L3.59961 67.275Z" fill="#151618" fill-opacity="1.000000" fill-rule="nonzero"/>
</svg>
