<svg width="18.000000" height="22.000000" viewBox="0 0 18 22" fill="none" xmlns="http://www.w3.org/2000/svg" xmlns:xlink="http://www.w3.org/1999/xlink">
	<desc>
			Created with Pixso.
	</desc>
	<defs/>
	<path id="icon" d="M14 5.5C14 8.5376 11.7612 11 9 11C6.23877 11 4 8.5376 4 5.5C4 2.4624 6.23877 0 9 0C11.7612 0 14 2.4624 14 5.5ZM6 5.5C6 7.32251 7.34326 8.80005 9 8.80005C10.6567 8.80005 12 7.32251 12 5.5C12 3.67749 10.6567 2.19995 9 2.19995C7.34326 2.19995 6 3.67749 6 5.5ZM12.916 12.6987C13.957 12.0811 15.2603 12.2634 16.103 13.1086C16.4854 13.4923 16.937 13.9928 17.2993 14.5391C17.6445 15.0592 18 15.754 18 16.5L18 19.0004C18 20.6573 16.6567 22 15 22L3 22C1.34326 22 0 20.6573 0 19.0004L0 16.5C0 15.7638 0.346191 15.0781 0.685059 14.5626C1.04053 14.0219 1.48438 13.5256 1.86426 13.142C2.73486 12.2622 4.07568 12.1133 5.12012 12.7543C5.22461 12.8184 5.32275 12.8795 5.41699 12.9379C5.89844 13.2371 6.26367 13.464 6.72607 13.6448C7.24902 13.8491 7.92676 14 9 14C10.0835 14 10.75 13.8401 11.2651 13.6283C11.6753 13.4598 11.9937 13.2634 12.4038 13.0105C12.5581 12.9152 12.7256 12.8116 12.916 12.6987ZM14.686 14.5205C14.478 14.3115 14.1758 14.2767 13.9365 14.4187C13.8149 14.4911 13.688 14.5695 13.5557 14.6511C13.1079 14.9282 12.6006 15.2419 12.0254 15.4783C11.2314 15.8046 10.3003 16 9 16C7.72412 16 6.79297 15.8181 5.99854 15.5077C5.34912 15.254 4.80957 14.917 4.32715 14.6158C4.24072 14.5621 4.15674 14.5095 4.07373 14.4587C3.81104 14.2975 3.49414 14.3381 3.28564 14.5487C2.95361 14.8844 2.61035 15.2748 2.35596 15.6613C2.08545 16.073 2 16.355 2 16.5L2 19.0004C2 19.5524 2.44775 20 3 20L15 20C15.5522 20 16 19.5524 16 19.0004L16 16.5C16 16.3521 15.9111 16.0642 15.6333 15.645C15.3726 15.2522 15.0215 14.8568 14.686 14.5205Z" fill="#151618" fill-opacity="1.000000" fill-rule="evenodd"/>
</svg>
