<svg width="22.000000" height="22.000000" viewBox="0 0 22 22" fill="none" xmlns="http://www.w3.org/2000/svg" xmlns:xlink="http://www.w3.org/1999/xlink">
	<desc>
			Created with Pixso.
	</desc>
	<defs/>
	<path id="icon" d="M16.0391 14.6244C17.2715 13.084 18.0083 11.1301 18.0083 9.00415C18.0083 4.03125 13.9771 0 9.00391 0C4.03125 0 0 4.03125 0 9.00415C0 13.9769 4.03125 18.0082 9.00391 18.0082C11.1299 18.0082 13.084 17.2714 14.6245 16.0392L20.292 21.707C20.6826 22.0977 21.3164 22.0977 21.707 21.707C22.0977 21.3163 22.0977 20.6829 21.707 20.2921L16.0391 14.6244ZM9.00391 16.0173C5.13086 16.0173 1.99072 12.8774 1.99072 9.00415C1.99072 5.13086 5.13086 1.99084 9.00391 1.99084C12.8774 1.99084 16.0176 5.13086 16.0176 9.00415C16.0176 12.8774 12.8774 16.0173 9.00391 16.0173Z" fill="#151618" fill-opacity="1.000000" fill-rule="evenodd"/>
</svg>
