<svg width="20.000000" height="22.000000" viewBox="0 0 20 22" fill="none" xmlns="http://www.w3.org/2000/svg" xmlns:xlink="http://www.w3.org/1999/xlink">
	<desc>
			Created with Pixso.
	</desc>
	<defs/>
	<path id="icon" d="M14.5918 5C14.5728 4.91931 14.5532 4.83838 14.5327 4.75745C14.2646 3.70142 13.8433 2.55383 13.1558 1.65002C12.4473 0.718018 11.4121 0 10 0C8.58789 0 7.55273 0.718018 6.84424 1.65002C6.15674 2.55383 5.73535 3.70142 5.46729 4.75745C5.44678 4.83838 5.42725 4.91931 5.4082 5L3.78564 5C2.18408 5 0.856934 6.22461 0.750488 7.80042L0.00683594 18.8004C-0.110352 20.532 1.28223 22 3.04199 22L16.958 22C18.7178 22 20.1104 20.532 19.9932 18.8004L19.2495 7.80042C19.1431 6.22461 17.8159 5 16.2144 5L14.5918 5ZM5.94434 10C6.52539 10 6.95605 9.56836 6.95801 8.99817C6.9585 8.97437 6.9585 8.95056 6.95898 8.92676C6.95996 8.87415 6.96191 8.79456 6.96533 8.69189C6.97266 8.48657 6.98779 8.18994 7.01807 7.83301C7.03955 7.57971 7.06836 7.29858 7.10693 7L12.8931 7C12.9316 7.29858 12.9604 7.57971 12.9819 7.83301C13.0122 8.18994 13.0273 8.48657 13.0347 8.69189C13.0381 8.79456 13.04 8.87415 13.041 8.92688C13.0415 8.95129 13.042 8.97583 13.042 9.00037C13.042 9.00037 13.042 10 14.0557 10C15.0698 10 15.0698 8.99866 15.0698 8.99866C15.0698 8.96362 15.0693 8.92859 15.0688 8.89343C15.0674 8.82898 15.0654 8.73669 15.061 8.62061C15.0527 8.38843 15.0361 8.06006 15.0029 7.66699C14.9854 7.46204 14.9639 7.23816 14.936 7L16.2144 7C16.748 7 17.1904 7.4082 17.2261 7.93347L17.9697 18.9335C18.0088 19.5106 17.5444 20 16.958 20L3.04199 20C2.45557 20 1.99121 19.5106 2.03027 18.9335L2.77393 7.93347C2.80957 7.4082 3.25195 7 3.78564 7L5.06396 7C5.03613 7.23816 5.01465 7.46204 4.99707 7.66699C4.96387 8.06006 4.94727 8.38843 4.93896 8.62061C4.93457 8.73669 4.93262 8.82898 4.93115 8.89355C4.93066 8.92786 4.93018 8.96216 4.93018 8.99658C4.92969 9.56714 5.36475 10 5.94434 10ZM7.49902 5L12.501 5C12.2666 4.1532 11.9478 3.39465 11.5337 2.84998C11.1016 2.28198 10.6157 2 10 2C9.38428 2 8.89844 2.28198 8.46631 2.84998C8.05225 3.39465 7.7334 4.1532 7.49902 5Z" fill="#151618" fill-opacity="1.000000" fill-rule="evenodd"/>
</svg>
