<svg width="20.000000" height="20.000000" viewBox="0 0 20 20" fill="none" xmlns="http://www.w3.org/2000/svg" xmlns:xlink="http://www.w3.org/1999/xlink">
	<desc>
			Created with Pixso.
	</desc>
	<defs/>
	<path d="M0.553223 0.553467C-0.18457 1.29126 -0.18457 2.48779 0.553223 3.22559L7.32764 10L0.553223 16.7744C-0.18457 17.5122 -0.18457 18.7087 0.553223 19.4465C1.2915 20.1846 2.48779 20.1846 3.22559 19.4465L10 12.6721L16.7744 19.4465C17.5122 20.1846 18.7085 20.1846 19.4468 19.4465C20.1846 18.7085 20.1846 17.5122 19.4468 16.7744L12.6724 10L19.4468 3.22559C20.1846 2.48779 20.1846 1.29126 19.4468 0.553467C18.7085 -0.18457 17.5122 -0.18457 16.7744 0.553467L10 7.32788L3.22559 0.553467C2.48779 -0.18457 1.2915 -0.18457 0.553223 0.553467Z" fill="#754E29" fill-opacity="1.000000" fill-rule="nonzero"/>
</svg>
