<svg width="73.204224" height="105.000244" viewBox="0 0 73.2042 105" fill="none" xmlns="http://www.w3.org/2000/svg" xmlns:xlink="http://www.w3.org/1999/xlink">
	<desc>
			Created with Pixso.
	</desc>
	<defs/>
	<path d="M46.0792 1.28979C45.389 2.02075 43.7538 3.56812 42.4485 4.75732C38.0975 8.68335 37.2124 10.0874 37.0924 13.2971C37.0023 15.9048 37.6324 17.8821 39.2678 20.1316C39.7029 20.7334 40.063 21.1919 40.063 21.1345C40.063 21.0916 39.793 20.533 39.4629 19.9023C38.2026 17.4954 37.8275 14.5723 38.5177 12.4946C39.1628 10.5459 40.108 9.37109 43.3037 6.54834C43.9788 5.96094 44.804 5.14429 45.149 4.75732L45.7942 4.04102L45.7041 7.0498C45.6592 9.0415 45.5541 10.417 45.389 11.1335C44.834 13.5549 43.7538 15.4749 41.7883 17.5813C40.363 19.1143 39.958 19.9883 40.348 20.7048C40.4081 20.8337 40.5131 21.3782 40.5731 21.894L40.6631 22.8396L39.8079 23.3843C36.9124 25.2183 34.8718 27.8689 34.0468 30.8779C33.8217 31.6802 33.7317 32.4541 33.7317 33.7007C33.7167 36.3513 34.2268 38.5579 35.517 41.3376L36.1921 42.7991L35.9521 43.9453C35.712 45.106 35.6371 48.5591 35.847 49.4617C35.9221 49.8201 36.0121 49.8916 36.3872 49.8916L36.8373 49.8916L36.9423 48.0432C37.3324 41.4521 39.6129 37.6265 44.969 34.5747C49.0948 32.2249 50.3102 30.9065 53.0557 25.8057C55.2162 21.7507 55.9062 20.676 57.5717 18.6272L58.5168 17.4666L57.1815 18.011C55.0211 18.8994 51.9154 19.7878 48.1647 20.5901C44.564 21.3496 42.9286 21.7937 41.6833 22.3955C41.2932 22.5818 40.9331 22.7395 40.8882 22.7395C40.8431 22.7395 40.8281 22.1663 40.8732 21.45C40.9481 19.9167 40.9631 19.8882 43.2887 17.5669C44.549 16.3203 45.074 15.6611 45.5092 14.8445C46.4694 13.0249 46.5443 12.4946 46.4393 8.98413C46.3344 5.68872 46.5143 3.53955 47.1145 1.14673C47.2645 0.530518 47.3845 0.0146484 47.3695 0.000244141C47.3545 -0.013916 46.7694 0.573486 46.0792 1.28979ZM52.9957 23.7568C49.9801 29.0581 47.8796 31.3079 43.0636 34.417C42.1184 35.0332 41.0082 35.8069 40.603 36.1221C39.1178 37.2971 37.4224 39.6182 36.7773 41.3518C36.6272 41.7673 36.4622 42.054 36.4172 41.9824C36.1771 41.6243 35.532 38.7012 35.382 37.3401C34.8868 32.8267 36.6422 28.8718 40.333 26.2212C42.4485 24.688 44.3689 23.9861 48.2397 23.3125C49.89 23.0259 52.5156 22.2952 53.6409 21.8225C53.8959 21.7222 54.106 21.6504 54.136 21.6648C54.1509 21.6792 53.6409 22.6248 52.9957 23.7568Z" fill="#151618" fill-opacity="1.000000" fill-rule="nonzero"/>
	<path d="M19.681 4.86865C20.5758 8.09717 20.8442 12.3298 20.4117 16.2898C19.8749 21.2256 20.3223 22.7178 23.5137 26.7783C24.3785 27.8689 25.3479 29.2893 25.6909 29.9207C26.6603 31.8003 27.1821 34.469 27.1971 37.6829L27.1971 39.0173L26.8392 38.8738C26.004 38.5725 24.4978 38.4434 20.71 38.3716C18.5029 38.3286 16.2212 38.2283 15.6396 38.1707C15.0729 38.0991 14.5808 38.0703 14.5659 38.0847C14.5361 38.0991 14.8344 38.3286 15.2369 38.6013C16.9221 39.7634 18.6222 41.27 20.5907 43.3503C21.7539 44.5701 23.1407 45.9187 23.6926 46.335C26.0488 48.1284 28.748 49.1758 32.0139 49.5488C33.3561 49.7068 32.8192 49.2188 30.5525 48.272C26.9436 46.751 25.1392 45.5171 22.3654 42.6904C21.3214 41.6287 20.0538 40.4951 19.5616 40.165L18.667 39.5913L20.4266 39.5913C25.0497 39.5913 27.6594 40.4521 29.8813 42.7048C30.985 43.8096 31.7754 45.187 32.178 46.6648C32.2972 47.1384 32.4315 47.5544 32.4762 47.5974C32.6254 47.7266 32.5807 45.9043 32.4166 44.9001C32.0736 42.8196 30.3438 40.5239 28.3602 39.5195L27.4954 39.0891L27.4954 36.7217C27.4954 32.0154 27.0629 30.394 24.7961 26.7209C21.7986 21.8425 21.3065 19.9199 21.396 13.1619C21.4258 11.0671 21.4706 9.34546 21.4855 9.35962C21.4855 9.37402 21.7986 9.77588 22.1565 10.2493C22.5294 10.7227 23.8566 12.1433 25.1241 13.4058C28.1963 16.4619 29.3744 18.2268 30.1051 20.8813C30.9253 23.7939 30.2543 27.8689 28.3156 31.8003C27.9576 32.532 27.6892 33.1345 27.7041 33.1345C27.734 33.1345 27.9874 32.7903 28.2858 32.3599C30.6271 28.9736 31.8052 25.157 31.6262 21.5842C31.5219 19.6331 31.1191 18.1121 30.2692 16.4189C29.4042 14.6685 28.405 13.4346 25.512 10.5505C23.2601 8.29785 21.7091 6.63354 20.0836 4.79688L19.4573 4.07959L19.681 4.86865Z" fill="#151618" fill-opacity="1.000000" fill-rule="nonzero"/>
	<path d="M46.5726 40.0361C43.1472 40.7349 40.8185 43.6445 40.8035 47.2104C40.8035 47.9236 40.7734 47.9807 40.3376 48.1233C39.5564 48.3801 40.1273 48.5085 42.5463 48.6084C46.0017 48.751 48.1201 48.3657 49.923 47.2532C50.4188 46.9539 51.6658 45.998 52.7024 45.1279C54.8058 43.3879 55.8876 42.6462 57.6604 41.7476L58.8473 41.1487L57.4049 41.0488C56.6237 41.0059 55.2264 40.8206 54.295 40.6636C53.3635 40.5068 51.8911 40.25 51.0198 40.1074C49.1869 39.7935 47.8647 39.7651 46.5726 40.0361ZM51.5305 41.8188C52.2667 41.99 53.4086 42.1755 54.0396 42.2183L55.2114 42.3181L53.5739 43.5732C51.0798 45.4846 49.4272 46.3547 47.3088 46.8682C46.2271 47.1392 41.3894 47.8381 41.2842 47.7383C41.149 47.6099 41.5847 46.2834 42.1105 45.2422C43.027 43.4307 44.7548 42.1328 46.9332 41.605C48.045 41.334 49.7878 41.4197 51.5305 41.8188Z" fill="#151618" fill-opacity="1.000000" fill-rule="nonzero"/>
	<path d="M13.0565 55.6406C12.876 63.3896 13.2971 66.011 15.3276 69.9141C16.3955 71.9595 18.1251 74.3503 19.3584 75.4739C19.6593 75.7476 19.8999 76.0066 19.8999 76.0498C19.8999 76.1074 16.1548 76.1218 11.5975 76.093C7.02527 76.0642 3.12976 76.093 2.9342 76.1362C2.75366 76.1794 2.51306 76.3811 2.42285 76.5684C2.28748 76.8708 2.30249 76.9717 2.52808 77.2166C2.79883 77.5046 2.96423 77.5046 36.4745 77.5046C59.4114 77.5046 70.2405 77.4614 70.451 77.3606C70.8422 77.1589 70.8422 76.4099 70.451 76.2083C70.2555 76.1218 67.1572 76.0642 61.4117 76.0642L52.6732 76.0642L53.5907 75.0129C56.2076 72.0603 57.9072 68.8196 59.0203 64.6858C59.3361 63.5481 59.3662 63.0583 59.4114 57.2971L59.4866 51.147L36.3241 51.147L13.1617 51.147L13.0565 55.6406Z" fill="#151618" fill-opacity="1.000000" fill-rule="nonzero"/>
	<path d="M6.81421 79.4548C11.8964 81.7461 19.7301 83.613 27.0376 84.2776C28.3308 84.405 28.9171 84.5039 28.6917 84.5605C28.3759 84.6453 28.3608 84.6594 28.6165 84.6736C28.7819 84.6877 29.8043 84.7585 30.8718 84.8433C36.375 85.2253 48.1633 84.999 47.8325 84.5039C47.7875 84.4333 47.8025 84.405 47.8927 84.4473C47.9679 84.4897 48.2385 84.4756 48.4791 84.405C48.9001 84.2917 48.9001 84.2917 48.3137 84.2634C47.9528 84.2493 48.7196 84.0796 50.1932 83.8391C54.7792 83.1038 58.5532 82.2129 61.6506 81.1379C63.4249 80.5156 66.8682 79.1013 67.1088 78.875C67.184 78.8044 55.4408 78.7478 36.2848 78.762L5.31055 78.7761L6.81421 79.4548Z" fill="#151618" fill-opacity="1.000000" fill-rule="nonzero"/>
	<path d="M5.82715 100.516L5.625 100.516C5.61914 100.516 5.60156 100.519 5.57227 100.524C5.54883 100.53 5.52246 100.539 5.49316 100.551C5.46387 100.557 5.43457 100.562 5.40527 100.568C5.37598 100.574 5.3584 100.577 5.35254 100.577C5.05371 100.606 4.75195 100.624 4.44727 100.63C4.14258 100.642 3.83789 100.647 3.5332 100.647C3.46875 100.647 3.38672 100.645 3.28711 100.639C3.19336 100.639 3.10254 100.627 3.01465 100.604C2.92676 100.574 2.85059 100.533 2.78613 100.48C2.72168 100.428 2.68945 100.352 2.68945 100.252C2.68945 100.176 2.70703 100.1 2.74219 100.023C2.77734 99.9473 2.82715 99.8945 2.8916 99.8652C2.9502 99.8594 3.05273 99.8535 3.19922 99.8477C3.3457 99.8418 3.49805 99.8359 3.65625 99.8301C3.82031 99.8184 3.97559 99.8096 4.12207 99.8037C4.26855 99.792 4.37109 99.7803 4.42969 99.7686C4.46484 99.7686 4.51172 99.7686 4.57031 99.7686C4.62891 99.7627 4.6875 99.7539 4.74609 99.7422C4.81055 99.7246 4.86621 99.7041 4.91309 99.6807C4.96582 99.6572 5.00684 99.625 5.03613 99.584C5.10645 99.4375 5.1416 99.2822 5.1416 99.1182L5.1416 98.8457L5.1416 98.1426C5.1416 98.125 5.14453 98.084 5.15039 98.0195C5.16211 97.9551 5.1709 97.8848 5.17676 97.8086C5.18848 97.7324 5.2002 97.6592 5.21191 97.5889C5.22363 97.5186 5.22949 97.4746 5.22949 97.457C5.25879 96.8477 5.27637 96.2354 5.28223 95.6201C5.28809 95.0049 5.29102 94.3926 5.29102 93.7832C5.29102 93.5254 5.28809 93.2734 5.28223 93.0273C5.27637 92.7812 5.27344 92.5352 5.27344 92.2891C5.27344 92.2012 5.27344 92.0576 5.27344 91.8584C5.2793 91.6533 5.28223 91.4424 5.28223 91.2256C5.28223 91.0029 5.28223 90.7949 5.28223 90.6016C5.28809 90.4023 5.29102 90.2646 5.29102 90.1885C5.26172 90.0713 5.2207 89.9746 5.16797 89.8984C5.12109 89.8164 5.05664 89.7373 4.97461 89.6611C4.94531 89.6553 4.89258 89.6494 4.81641 89.6436C4.74609 89.6318 4.66992 89.623 4.58789 89.6172C4.51172 89.6055 4.43555 89.5967 4.35938 89.5908C4.28906 89.585 4.23926 89.582 4.20996 89.582C4.19824 89.582 4.16895 89.5879 4.12207 89.5996C4.08105 89.6055 4.03418 89.6143 3.98145 89.626C3.93457 89.6318 3.8877 89.6406 3.84082 89.6523C3.79395 89.6582 3.76465 89.6611 3.75293 89.6611C3.71777 89.667 3.64453 89.6699 3.5332 89.6699C3.42773 89.6699 3.31348 89.6699 3.19043 89.6699C3.07324 89.6699 2.96191 89.6699 2.85645 89.6699C2.75098 89.6699 2.6748 89.667 2.62793 89.6611C2.54004 89.6963 2.44336 89.7227 2.33789 89.7402C2.23242 89.752 2.13281 89.79 2.03906 89.8545C2.03906 89.8662 2.02148 89.8896 1.98633 89.9248C1.95117 89.96 1.92773 89.9834 1.91602 89.9951C1.86914 90.0479 1.80469 90.1211 1.72266 90.2148C1.64648 90.3027 1.57031 90.3936 1.49414 90.4873C1.41797 90.5811 1.34766 90.6631 1.2832 90.7334C1.22461 90.8037 1.19238 90.8418 1.18652 90.8477C1.14551 90.9004 1.10449 90.9736 1.06348 91.0674C1.02832 91.1553 0.987305 91.2432 0.94043 91.3311C0.893555 91.4131 0.837891 91.4863 0.773438 91.5508C0.708984 91.6152 0.629883 91.6475 0.536133 91.6475C0.46582 91.6475 0.416016 91.6299 0.386719 91.5947C0.357422 91.5537 0.333984 91.5068 0.316406 91.4541C0.316406 91.4365 0.316406 91.4102 0.316406 91.375C0.316406 91.334 0.313477 91.293 0.307617 91.252C0.307617 91.2051 0.307617 91.1611 0.307617 91.1201C0.307617 91.0732 0.307617 91.041 0.307617 91.0234C0.307617 91.0059 0.307617 90.9795 0.307617 90.9443C0.307617 90.9033 0.307617 90.8652 0.307617 90.8301C0.313477 90.7891 0.316406 90.7539 0.316406 90.7246C0.316406 90.6895 0.316406 90.6689 0.316406 90.6631C0.322266 90.6455 0.333984 90.6016 0.351562 90.5312C0.375 90.4551 0.398438 90.376 0.421875 90.2939C0.445312 90.2119 0.46582 90.1357 0.483398 90.0654C0.506836 89.9951 0.524414 89.9512 0.536133 89.9336C0.536133 89.916 0.541992 89.8779 0.553711 89.8193C0.56543 89.7607 0.577148 89.6992 0.588867 89.6348C0.606445 89.5645 0.621094 89.5029 0.632812 89.4502C0.644531 89.3916 0.65332 89.3535 0.65918 89.3359C0.65918 89.3242 0.667969 89.292 0.685547 89.2393C0.708984 89.1865 0.732422 89.1279 0.755859 89.0635C0.779297 88.999 0.799805 88.9404 0.817383 88.8877C0.84082 88.835 0.852539 88.8027 0.852539 88.791C0.870117 88.7441 0.887695 88.6914 0.905273 88.6328C0.928711 88.5684 0.955078 88.5098 0.984375 88.457C1.01953 88.4043 1.06055 88.3604 1.10742 88.3252C1.1543 88.2842 1.20996 88.2637 1.27441 88.2637C1.37402 88.2637 1.45312 88.29 1.51172 88.3428C1.57617 88.3955 1.63477 88.4541 1.6875 88.5186C1.74023 88.583 1.79297 88.6504 1.8457 88.7207C1.89844 88.7852 1.96289 88.8291 2.03906 88.8525C2.16211 88.8525 2.29102 88.8496 2.42578 88.8438C2.56055 88.8379 2.69531 88.835 2.83008 88.835C3.08203 88.835 3.33105 88.8408 3.57715 88.8525C3.82324 88.8643 4.06641 88.8906 4.30664 88.9316C4.30664 88.9316 4.31836 88.9375 4.3418 88.9492C4.36523 88.9551 4.38867 88.9639 4.41211 88.9756C4.44141 88.9814 4.46777 88.9873 4.49121 88.9932C4.52051 88.999 4.53809 89.002 4.54395 89.002L4.8252 89.002C4.97754 89.002 5.11523 88.9873 5.23828 88.958C5.36719 88.9287 5.51074 88.9141 5.66895 88.9141C5.69238 88.9141 5.72461 88.9141 5.76562 88.9141C5.8125 88.9141 5.85938 88.9141 5.90625 88.9141C5.95312 88.9141 5.99414 88.917 6.0293 88.9229C6.06445 88.9229 6.08789 88.9258 6.09961 88.9316C6.12305 88.9316 6.16992 88.9375 6.24023 88.9492C6.31641 88.9551 6.39844 88.9639 6.48633 88.9756C6.57422 88.9814 6.65332 88.9873 6.72363 88.9932C6.7998 88.999 6.84961 89.002 6.87305 89.002C6.91992 88.9844 6.97559 88.9697 7.04004 88.958C7.11035 88.9463 7.20117 88.9375 7.3125 88.9316C7.42969 88.9258 7.57617 88.9229 7.75195 88.9229C7.92773 88.917 8.14746 88.9141 8.41113 88.9141L10.002 88.9316C10.1016 88.9316 10.2041 88.8994 10.3096 88.835C10.415 88.7646 10.5205 88.6855 10.626 88.5977C10.7314 88.5039 10.834 88.4131 10.9336 88.3252C11.0391 88.2373 11.1416 88.1758 11.2412 88.1406L11.3467 88.1406C11.5166 88.1406 11.6367 88.2314 11.707 88.4131C11.7129 88.4834 11.7246 88.6152 11.7422 88.8086C11.7598 88.9961 11.7773 89.1953 11.7949 89.4062C11.8184 89.6172 11.8418 89.8164 11.8652 90.0039C11.8887 90.1914 11.9062 90.3232 11.918 90.3994C11.918 90.4111 11.9209 90.4316 11.9268 90.4609C11.9326 90.4902 11.9385 90.5254 11.9443 90.5664C11.9561 90.6016 11.9648 90.6367 11.9707 90.6719C11.9766 90.7012 11.9795 90.7188 11.9795 90.7246L11.9795 90.8564C11.9795 91.0088 11.9736 91.1465 11.9619 91.2695C11.9502 91.3926 11.9355 91.5332 11.918 91.6914C11.8945 91.7383 11.8652 91.7705 11.8301 91.7881C11.8008 91.7998 11.7715 91.8057 11.7422 91.8057C11.7246 91.8057 11.707 91.7969 11.6895 91.7793C11.6719 91.7734 11.6572 91.7646 11.6455 91.7529C11.5576 91.7119 11.4814 91.6533 11.417 91.5771C11.3584 91.501 11.3057 91.4189 11.2588 91.3311C11.2178 91.2432 11.1797 91.1523 11.1445 91.0586C11.1094 90.959 11.0742 90.8682 11.0391 90.7861C10.9395 90.5342 10.7754 90.332 10.5469 90.1797C10.3242 90.0273 10.0928 89.8984 9.85254 89.793C9.7002 89.7285 9.55078 89.6963 9.4043 89.6963C9.25781 89.6963 9.09961 89.6846 8.92969 89.6611C8.91797 89.6611 8.87402 89.6494 8.79785 89.626C8.72754 89.5967 8.68066 89.582 8.65723 89.582L8.26172 89.582L7.81348 89.582C7.7666 89.582 7.69922 89.5938 7.61133 89.6172C7.52344 89.6348 7.47656 89.6494 7.4707 89.6611C7.45312 89.6846 7.43262 89.708 7.40918 89.7314C7.36816 89.7842 7.3418 89.8252 7.33008 89.8545C7.30664 89.8955 7.28027 89.9512 7.25098 90.0215C7.22168 90.0859 7.20703 90.1211 7.20703 90.127C7.20117 90.1445 7.19531 90.1768 7.18945 90.2236C7.18359 90.2646 7.17773 90.3086 7.17188 90.3555C7.17188 90.4023 7.16895 90.4492 7.16309 90.4961C7.15723 90.5371 7.15137 90.5664 7.14551 90.584C7.14551 90.6777 7.14844 90.8389 7.1543 91.0674C7.16016 91.2959 7.16309 91.542 7.16309 91.8057C7.16309 92.0693 7.16016 92.3184 7.1543 92.5527C7.14844 92.7812 7.14551 92.9365 7.14551 93.0186C7.14551 93.3174 7.12207 93.6104 7.0752 93.8975C7.03418 94.1787 7.01367 94.4688 7.01367 94.7676C7.01367 95.0898 7.02246 95.4121 7.04004 95.7344C7.06348 96.0508 7.0752 96.376 7.0752 96.71C7.0752 97.1143 7.06348 97.5215 7.04004 97.9316C7.02246 98.3418 7.01367 98.752 7.01367 99.1621C7.01367 99.2852 7.04004 99.3818 7.09277 99.4521C7.15137 99.5225 7.22461 99.5752 7.3125 99.6104C7.40039 99.6455 7.49707 99.6689 7.60254 99.6807C7.71387 99.6924 7.81934 99.7012 7.91895 99.707C7.96582 99.7129 8.03906 99.7188 8.13867 99.7246C8.24414 99.7305 8.35254 99.7363 8.46387 99.7422C8.58105 99.748 8.68945 99.7539 8.78906 99.7598C8.88867 99.7656 8.95898 99.7686 9 99.7686C9.11133 99.8096 9.19336 99.874 9.24609 99.9619C9.30469 100.05 9.33398 100.146 9.33398 100.252C9.33398 100.387 9.2959 100.492 9.21973 100.568C9.14355 100.639 9.04688 100.712 8.92969 100.788L8.91211 100.788C8.69531 100.788 8.49316 100.771 8.30566 100.735C8.12402 100.706 7.93066 100.677 7.72559 100.647C7.09863 100.56 6.46582 100.516 5.82715 100.516ZM12.6738 100.621C12.6738 100.598 12.6562 100.565 12.6211 100.524C12.5918 100.478 12.5742 100.439 12.5684 100.41L12.5684 100.375L12.5684 100.366C12.5801 100.343 12.6064 100.308 12.6475 100.261C12.6885 100.214 12.7324 100.167 12.7793 100.12C12.832 100.067 12.8789 100.021 12.9199 99.9795C12.9668 99.9385 12.999 99.9092 13.0166 99.8916C13.0283 99.8799 13.0664 99.8682 13.1309 99.8564C13.2012 99.8389 13.251 99.8301 13.2803 99.8301L13.9043 99.8301C13.9219 99.8301 13.9453 99.8271 13.9746 99.8213C14.0098 99.8096 14.042 99.8008 14.0713 99.7949C14.1064 99.7832 14.1357 99.7715 14.1592 99.7598C14.1885 99.748 14.2031 99.7422 14.2031 99.7422C14.2852 99.7012 14.332 99.6367 14.3438 99.5488C14.3613 99.4551 14.3701 99.3672 14.3701 99.2852L14.3701 99.1445C14.3701 98.9395 14.3643 98.7461 14.3525 98.5645C14.3467 98.377 14.3438 98.1807 14.3438 97.9756L14.3438 97.9141C14.3438 97.8965 14.3467 97.8643 14.3525 97.8174C14.3584 97.7705 14.3643 97.7207 14.3701 97.668C14.3818 97.6094 14.3936 97.5566 14.4053 97.5098C14.417 97.4629 14.4258 97.4307 14.4316 97.4131L14.4316 93.5811C14.4316 93.4639 14.4111 93.3701 14.3701 93.2998C14.3291 93.2295 14.2764 93.1768 14.2119 93.1416C14.1475 93.1006 14.0713 93.0742 13.9834 93.0625C13.9014 93.0508 13.8135 93.0449 13.7197 93.0449L13.3594 93.0449C13.1953 93.0449 13.0576 93.0244 12.9463 92.9834C12.835 92.9424 12.7793 92.8428 12.7793 92.6846C12.7793 92.6318 12.7793 92.585 12.7793 92.5439C12.7852 92.5029 12.7998 92.4473 12.8232 92.377C13.1045 92.3887 13.3799 92.3799 13.6494 92.3506C13.9189 92.3213 14.1914 92.3066 14.4668 92.3066L14.6953 92.3066C14.7188 92.3125 14.7656 92.3184 14.8359 92.3242C14.9121 92.3301 14.9883 92.3359 15.0645 92.3418C15.1465 92.3477 15.2227 92.3535 15.293 92.3594C15.3633 92.3652 15.4131 92.3711 15.4424 92.377L19.5732 92.377C19.749 92.377 19.875 92.4238 19.9512 92.5176C20.0273 92.6055 20.083 92.7168 20.1182 92.8516L20.1182 93.3525L20.1182 93.8711C20.1182 93.9062 20.1123 93.9707 20.1006 94.0645C20.0889 94.1523 20.0742 94.249 20.0566 94.3545C20.0449 94.4541 20.0303 94.5537 20.0127 94.6533C20.001 94.7471 19.9922 94.8145 19.9863 94.8555C19.9746 94.873 19.9541 94.8994 19.9248 94.9346C19.8955 94.9639 19.875 94.9785 19.8633 94.9785C19.8633 94.9902 19.8574 94.9961 19.8457 94.9961L19.8369 94.9961L19.8105 94.9961C19.793 94.9961 19.7842 94.9902 19.7842 94.9785C19.6846 94.9082 19.6084 94.8291 19.5557 94.7412C19.5029 94.6475 19.459 94.5508 19.4238 94.4512C19.3887 94.3516 19.3564 94.252 19.3271 94.1523C19.2979 94.0527 19.2539 93.959 19.1953 93.8711C19.1836 93.8477 19.1455 93.8096 19.0811 93.7568C19.0225 93.6982 18.9902 93.666 18.9844 93.6602C18.9727 93.6484 18.9463 93.6162 18.9053 93.5635C18.8701 93.5107 18.8291 93.4551 18.7822 93.3965C18.7412 93.332 18.7002 93.2734 18.6592 93.2207C18.624 93.168 18.6006 93.1357 18.5889 93.124C18.5654 93.0713 18.5391 93.0449 18.5098 93.0449C18.5039 93.0449 18.4834 93.042 18.4482 93.0361C18.4189 93.0303 18.3838 93.0244 18.3428 93.0186C18.3076 93.0068 18.2725 92.998 18.2373 92.9922C18.208 92.9863 18.1934 92.9805 18.1934 92.9746C18.1758 92.9746 18.1436 92.9688 18.0967 92.957C18.0498 92.9453 17.9971 92.9336 17.9385 92.9219C17.8857 92.9102 17.8359 92.8984 17.7891 92.8867C17.7422 92.8691 17.7129 92.8574 17.7012 92.8516L17.6572 92.8516C17.6338 92.8516 17.6016 92.8604 17.5605 92.8779C17.5195 92.8896 17.4902 92.8955 17.4727 92.8955L17.4463 92.8955C17.4287 92.8896 17.3789 92.8838 17.2969 92.8779C17.2207 92.8721 17.1357 92.8691 17.042 92.8691C16.9482 92.8633 16.8604 92.8604 16.7783 92.8604C16.7021 92.8545 16.6553 92.8516 16.6377 92.8516L16.6113 92.8516C16.5059 92.8516 16.418 92.8721 16.3477 92.9131C16.2773 92.9541 16.2188 93.0068 16.1719 93.0713C16.1309 93.1357 16.0928 93.209 16.0576 93.291C16.0283 93.3672 15.999 93.4434 15.9697 93.5195C15.9639 93.584 15.9521 93.6895 15.9346 93.8359C15.9229 93.9824 15.9082 94.1377 15.8906 94.3018C15.8789 94.4658 15.8672 94.6211 15.8555 94.7676C15.8438 94.9141 15.8379 95.0166 15.8379 95.0752L15.8379 95.1455L15.8379 95.1895C15.8379 95.2188 15.8408 95.2686 15.8467 95.3389C15.8525 95.4092 15.8584 95.4854 15.8643 95.5674C15.8701 95.6436 15.876 95.7197 15.8818 95.7959C15.8936 95.8662 15.9023 95.9131 15.9082 95.9365C15.9492 95.9893 15.9961 96.042 16.0488 96.0947C16.1074 96.1475 16.1689 96.1826 16.2334 96.2002L16.7168 96.2002C16.916 96.2002 17.0889 96.1973 17.2354 96.1914C17.3877 96.1855 17.5693 96.168 17.7803 96.1387C17.7861 96.127 17.7949 96.1064 17.8066 96.0771C17.8184 96.0479 17.833 96.0186 17.8506 95.9893C17.8682 95.96 17.8828 95.9336 17.8945 95.9102C17.9062 95.8867 17.915 95.8721 17.9209 95.8662C17.9443 95.8252 17.9736 95.7666 18.0088 95.6904C18.0439 95.6084 18.0791 95.5293 18.1143 95.4531C18.1494 95.3711 18.1787 95.3008 18.2021 95.2422C18.2314 95.1836 18.249 95.1514 18.2549 95.1455C18.2666 95.1221 18.2783 95.0723 18.29 94.9961C18.3018 94.9141 18.3135 94.8672 18.3252 94.8555C18.3721 94.8027 18.4336 94.7676 18.5098 94.75C18.5859 94.7324 18.6621 94.7236 18.7383 94.7236C18.8203 94.7236 18.8701 94.7559 18.8877 94.8203C18.9111 94.8789 18.9229 94.9463 18.9229 95.0225L18.9229 95.2422L18.9229 95.3477C18.9229 95.4004 18.917 95.4531 18.9053 95.5059C18.8936 95.5527 18.873 95.5996 18.8438 95.6465C18.8379 95.6992 18.832 95.7871 18.8262 95.9102C18.8203 96.0332 18.8145 96.1621 18.8086 96.2969C18.8027 96.4316 18.7969 96.5605 18.791 96.6836C18.7852 96.8008 18.7822 96.8828 18.7822 96.9297L18.7822 97.1582L18.7822 97.6855C18.7764 97.6973 18.7705 97.7236 18.7646 97.7646C18.7588 97.8057 18.7529 97.8525 18.7471 97.9053C18.7471 97.9521 18.7441 97.999 18.7383 98.0459C18.7324 98.0928 18.7266 98.125 18.7207 98.1426C18.6562 98.1895 18.5977 98.2246 18.5449 98.248C18.498 98.2715 18.4395 98.2832 18.3691 98.2832C18.3223 98.2832 18.2783 98.2656 18.2373 98.2305C18.1963 98.1895 18.1582 98.1396 18.123 98.0811C18.0879 98.0225 18.0586 97.9639 18.0352 97.9053C18.0117 97.8408 17.9971 97.7822 17.9912 97.7295C17.9854 97.7119 17.9766 97.6738 17.9648 97.6152C17.959 97.5508 17.9531 97.4834 17.9473 97.4131C17.9414 97.3369 17.9355 97.2666 17.9297 97.2021C17.9238 97.1377 17.9209 97.0908 17.9209 97.0615C17.9033 97.0381 17.8711 97.0176 17.8242 97C17.7832 96.9766 17.7422 96.9531 17.7012 96.9297C17.666 96.918 17.6104 96.9033 17.5342 96.8857C17.458 96.8682 17.376 96.8535 17.2881 96.8418C17.2061 96.8242 17.127 96.8125 17.0508 96.8066C16.9805 96.7949 16.9336 96.7891 16.9102 96.7891C16.8926 96.7891 16.8604 96.7891 16.8135 96.7891C16.7725 96.7832 16.7227 96.7803 16.6641 96.7803C16.6113 96.7803 16.5586 96.7803 16.5059 96.7803C16.4531 96.7744 16.4121 96.7715 16.3828 96.7715C16.3652 96.7715 16.3359 96.7744 16.2949 96.7803C16.2598 96.7803 16.2217 96.7803 16.1807 96.7803C16.1455 96.7803 16.1133 96.7832 16.084 96.7891C16.0547 96.7891 16.0371 96.7891 16.0312 96.7891L15.9082 96.9297L15.9082 97.2285C15.9082 97.5742 15.8965 97.9082 15.873 98.2305C15.8496 98.5469 15.8379 98.8779 15.8379 99.2236C15.8379 99.3994 15.8525 99.5283 15.8818 99.6104C15.9111 99.6924 15.958 99.751 16.0225 99.7861C16.0869 99.8213 16.1689 99.8477 16.2686 99.8652C16.3682 99.8828 16.4912 99.9121 16.6377 99.9531C16.6494 99.9531 16.6699 99.9619 16.6992 99.9795C16.7285 99.9971 16.749 100.015 16.7607 100.032L17.4463 100.032L18.0967 100.032C18.1084 100.032 18.1348 100.029 18.1758 100.023C18.2168 100.012 18.2607 100.003 18.3076 99.9971C18.3545 99.9854 18.3955 99.9766 18.4307 99.9707C18.4717 99.959 18.498 99.9531 18.5098 99.9531L18.9316 99.9531L19.0986 99.9531C19.1104 99.9531 19.1309 99.9443 19.1602 99.9268C19.1895 99.9033 19.2188 99.8799 19.248 99.8564C19.2832 99.8271 19.3125 99.8008 19.3359 99.7773C19.3594 99.7539 19.374 99.7422 19.3799 99.7422C19.4209 99.7246 19.4531 99.7158 19.4766 99.7158C19.5059 99.71 19.5293 99.707 19.5469 99.707C19.5645 99.7012 19.582 99.6924 19.5996 99.6807C19.6172 99.6631 19.6348 99.6367 19.6523 99.6016C19.7168 99.5078 19.7637 99.4111 19.793 99.3115C19.8223 99.2119 19.8604 99.1123 19.9072 99.0127C19.9307 98.9951 19.96 98.96 19.9951 98.9072C20.0303 98.8486 20.0508 98.8105 20.0566 98.793C20.0625 98.793 20.0801 98.7842 20.1094 98.7666C20.1387 98.7432 20.168 98.7197 20.1973 98.6963C20.2266 98.667 20.2529 98.6406 20.2764 98.6172C20.2998 98.5879 20.3145 98.5674 20.3203 98.5557C20.3262 98.5381 20.3379 98.5146 20.3555 98.4854C20.3789 98.4502 20.4023 98.415 20.4258 98.3799C20.4492 98.3389 20.4697 98.3037 20.4873 98.2744C20.5107 98.2393 20.5254 98.2158 20.5312 98.2041C20.5312 98.1982 20.54 98.1865 20.5576 98.1689C20.5693 98.1631 20.5811 98.1543 20.5928 98.1426C20.5928 98.1309 20.5957 98.125 20.6016 98.125L20.6191 98.125C20.707 98.125 20.7598 98.1602 20.7773 98.2305C20.7949 98.2949 20.8037 98.3623 20.8037 98.4326L20.8037 98.6172C20.8037 98.6465 20.8066 98.7168 20.8125 98.8281C20.8184 98.9395 20.8213 99.0596 20.8213 99.1885C20.8271 99.3115 20.833 99.4287 20.8389 99.54C20.8447 99.6514 20.8477 99.7188 20.8477 99.7422L20.8477 99.7686C20.8477 99.8447 20.833 99.9326 20.8037 100.032C20.7744 100.126 20.7334 100.217 20.6807 100.305C20.6279 100.393 20.5635 100.466 20.4873 100.524C20.417 100.583 20.3408 100.615 20.2588 100.621C20.2178 100.615 20.1416 100.609 20.0303 100.604C19.9248 100.598 19.8105 100.592 19.6875 100.586C19.5645 100.58 19.4473 100.574 19.3359 100.568C19.2246 100.562 19.1455 100.554 19.0986 100.542L18.9316 100.542L18.7822 100.542C18.7529 100.554 18.6855 100.565 18.5801 100.577C18.4746 100.583 18.3604 100.589 18.2373 100.595C18.1201 100.601 18.0059 100.606 17.8945 100.612C17.7891 100.618 17.7246 100.621 17.7012 100.621L14.3701 100.621C14.3525 100.627 14.3232 100.633 14.2822 100.639C14.2471 100.645 14.2061 100.647 14.1592 100.647C14.1182 100.653 14.0771 100.656 14.0361 100.656C13.9951 100.662 13.9658 100.665 13.9482 100.665C13.9482 100.677 13.9277 100.683 13.8867 100.683C13.8457 100.683 13.8076 100.68 13.7725 100.674C13.7373 100.668 13.7139 100.665 13.7021 100.665C13.6787 100.683 13.6318 100.703 13.5615 100.727C13.4912 100.75 13.4414 100.762 13.4121 100.762C13.3828 100.762 13.333 100.756 13.2627 100.744C13.1982 100.732 13.1279 100.718 13.0518 100.7C12.9756 100.688 12.9023 100.674 12.832 100.656C12.7617 100.645 12.709 100.633 12.6738 100.621ZM24.293 97.1406C24.293 97.2227 24.3311 97.2812 24.4072 97.3164C24.4834 97.3516 24.5537 97.3691 24.6182 97.3691L25.084 97.3691C25.1484 97.3691 25.2129 97.3721 25.2773 97.3779C25.3418 97.3838 25.4062 97.3867 25.4707 97.3867C25.623 97.3867 25.7549 97.3633 25.8662 97.3164C25.9775 97.2637 26.0332 97.1494 26.0332 96.9736L26.0332 96.8242C25.9805 96.5547 25.9014 96.2881 25.7959 96.0244C25.6904 95.7549 25.5908 95.4941 25.4971 95.2422C25.4854 95.2012 25.4678 95.1572 25.4443 95.1104C25.4268 95.0576 25.4033 95.0107 25.374 94.9697C25.3447 94.9229 25.3125 94.8848 25.2773 94.8555C25.2422 94.8262 25.2041 94.8115 25.1631 94.8115C25.0869 94.8115 25.0254 94.8438 24.9785 94.9082C24.9375 94.9727 24.9023 95.0488 24.873 95.1367C24.8496 95.2246 24.8291 95.3154 24.8115 95.4092C24.7939 95.4971 24.7734 95.5674 24.75 95.6201C24.7324 95.6729 24.7002 95.7666 24.6533 95.9014C24.6123 96.0361 24.5684 96.1797 24.5215 96.332C24.4746 96.4785 24.4277 96.6191 24.3809 96.7539C24.3398 96.8887 24.3105 96.9824 24.293 97.0352L24.293 97.1406ZM22.2451 100.577L22.2012 100.577C22.1895 100.577 22.1602 100.583 22.1133 100.595C22.0664 100.601 22.0137 100.609 21.9551 100.621C21.8965 100.627 21.8408 100.633 21.7881 100.639C21.7412 100.645 21.7119 100.647 21.7002 100.647L21.6475 100.647C21.6123 100.647 21.583 100.633 21.5596 100.604C21.5361 100.574 21.5186 100.542 21.5068 100.507C21.4951 100.466 21.4893 100.428 21.4893 100.393C21.4834 100.352 21.4805 100.325 21.4805 100.313L21.4805 100.287C21.4805 100.182 21.5156 100.111 21.5859 100.076C21.6621 100.041 21.7354 100.009 21.8057 99.9795C21.8174 99.9795 21.8467 99.9707 21.8936 99.9531C21.9404 99.9297 21.9902 99.9062 22.043 99.8828C22.1016 99.8594 22.1543 99.8389 22.2012 99.8213C22.248 99.7979 22.2773 99.7803 22.2891 99.7686C22.2949 99.7627 22.3125 99.748 22.3418 99.7246C22.3711 99.6953 22.4033 99.6631 22.4385 99.6279C22.4736 99.5928 22.5059 99.5576 22.5352 99.5225C22.5703 99.4873 22.5996 99.458 22.623 99.4346C22.6289 99.4229 22.6377 99.4082 22.6494 99.3906C22.6729 99.3555 22.6846 99.3291 22.6846 99.3115C22.6846 99.2998 22.6904 99.2646 22.7021 99.2061C22.7197 99.1475 22.7344 99.1123 22.7461 99.1006C22.9043 98.7842 23.0625 98.4648 23.2207 98.1426C23.3789 97.8145 23.5283 97.4863 23.6689 97.1582C23.6865 97.1406 23.71 97.0908 23.7393 97.0088C23.7744 96.9209 23.7979 96.8594 23.8096 96.8242C23.8154 96.8125 23.8301 96.7773 23.8535 96.7188C23.877 96.6543 23.9004 96.5898 23.9238 96.5254C23.9473 96.4551 23.9678 96.3906 23.9854 96.332C24.0088 96.2734 24.0205 96.2383 24.0205 96.2266C24.0264 96.209 24.0439 96.168 24.0732 96.1035C24.1084 96.0391 24.1436 95.9688 24.1787 95.8926C24.2197 95.8164 24.2549 95.7432 24.2842 95.6729C24.3193 95.6025 24.3428 95.5586 24.3545 95.541C24.4014 95.4355 24.4453 95.3418 24.4863 95.2598C24.5332 95.1719 24.5771 95.0693 24.6182 94.9521C24.6416 94.9053 24.6709 94.8525 24.7061 94.7939C24.7471 94.7354 24.7852 94.6738 24.8203 94.6094C24.8555 94.5391 24.8848 94.4717 24.9082 94.4072C24.9375 94.3428 24.9521 94.2812 24.9521 94.2227L24.9521 94.0996C24.9521 94.0762 24.9434 94.0381 24.9258 93.9854C24.9141 93.9268 24.9082 93.8945 24.9082 93.8887C24.9082 93.8477 24.9316 93.7949 24.9785 93.7305C25.0254 93.666 25.0605 93.625 25.084 93.6074C25.0957 93.6016 25.1221 93.5898 25.1631 93.5723C25.21 93.5547 25.2568 93.5342 25.3037 93.5107C25.3506 93.4873 25.3916 93.4668 25.4268 93.4492C25.4678 93.4316 25.4912 93.4199 25.4971 93.4141C25.5088 93.4023 25.5322 93.3789 25.5674 93.3438C25.6025 93.3086 25.6406 93.2705 25.6816 93.2295C25.7285 93.1826 25.7695 93.1387 25.8047 93.0977C25.8457 93.0508 25.875 93.0186 25.8926 93.001C25.8984 92.9951 25.9102 92.9775 25.9277 92.9482C25.9453 92.9131 25.9658 92.8809 25.9893 92.8516C26.0127 92.8164 26.0391 92.7871 26.0684 92.7637C26.0977 92.7344 26.1299 92.7227 26.165 92.7285C26.2236 92.7461 26.2734 92.7988 26.3145 92.8867C26.3613 92.9746 26.3994 93.0713 26.4287 93.1768C26.4639 93.2764 26.4932 93.376 26.5166 93.4756C26.54 93.5693 26.5605 93.6338 26.5781 93.6689C26.584 93.6982 26.5928 93.7393 26.6045 93.792C26.6221 93.8447 26.6367 93.8975 26.6484 93.9502C26.666 94.0029 26.6807 94.0498 26.6924 94.0908C26.7041 94.1318 26.71 94.1553 26.71 94.1611C26.7158 94.1787 26.7246 94.2197 26.7363 94.2842C26.748 94.3486 26.7598 94.4189 26.7715 94.4951C26.7891 94.5713 26.8037 94.6416 26.8154 94.7061C26.8271 94.7646 26.833 94.7998 26.833 94.8115C26.8389 94.8291 26.8535 94.8848 26.877 94.9785C26.9062 95.0723 26.9385 95.1807 26.9736 95.3037C27.0088 95.4268 27.0439 95.5498 27.0791 95.6729C27.1143 95.79 27.1436 95.8838 27.167 95.9541C27.2139 96.1123 27.2725 96.2705 27.3428 96.4287C27.4131 96.5811 27.4658 96.7363 27.501 96.8945C27.5303 97.0293 27.5479 97.1377 27.5537 97.2197C27.5654 97.2959 27.5947 97.3896 27.6416 97.501C27.6475 97.5127 27.6592 97.5391 27.6768 97.5801C27.7002 97.6152 27.7236 97.6562 27.7471 97.7031C27.7705 97.7441 27.791 97.7852 27.8086 97.8262C27.8262 97.8672 27.8379 97.8965 27.8438 97.9141C27.8438 97.9258 27.8467 97.9463 27.8525 97.9756C27.8584 98.0049 27.8643 98.04 27.8701 98.0811C27.8818 98.1162 27.8906 98.1514 27.8965 98.1865C27.9023 98.2158 27.9082 98.2363 27.9141 98.248C27.9141 98.2539 27.9199 98.2744 27.9316 98.3096C27.9434 98.3389 27.958 98.374 27.9756 98.415C27.9932 98.4502 28.0078 98.4854 28.0195 98.5205C28.0371 98.5498 28.0488 98.5645 28.0547 98.5645C28.084 98.7168 28.1221 98.8809 28.1689 99.0566C28.2158 99.2324 28.2891 99.3877 28.3887 99.5225C28.4355 99.5928 28.5205 99.6514 28.6436 99.6982C28.7725 99.7451 28.9014 99.792 29.0303 99.8389C29.165 99.8857 29.2822 99.9385 29.3818 99.9971C29.4814 100.056 29.5312 100.132 29.5312 100.226C29.5312 100.325 29.5049 100.404 29.4521 100.463C29.4053 100.516 29.3438 100.557 29.2676 100.586C29.1914 100.615 29.1064 100.633 29.0127 100.639C28.9189 100.645 28.8311 100.647 28.749 100.647L28.5732 100.647L28.3887 100.647C28.2949 100.647 28.1309 100.645 27.8965 100.639C27.6621 100.633 27.4102 100.627 27.1406 100.621C26.877 100.609 26.625 100.601 26.3848 100.595C26.1504 100.583 25.9863 100.577 25.8926 100.577C25.8281 100.554 25.79 100.527 25.7783 100.498C25.7666 100.463 25.7607 100.413 25.7607 100.349L25.7607 100.287C25.7607 100.275 25.7637 100.264 25.7695 100.252C25.8223 100.141 25.8955 100.067 25.9893 100.032C26.083 99.9912 26.1797 99.959 26.2793 99.9355C26.3848 99.9121 26.4873 99.8857 26.5869 99.8564C26.6865 99.8213 26.7686 99.751 26.833 99.6455L26.8506 99.584L26.833 99.5225C26.8271 99.4697 26.8125 99.3965 26.7891 99.3027C26.7715 99.209 26.751 99.1152 26.7275 99.0215C26.71 98.9277 26.6924 98.8457 26.6748 98.7754C26.6572 98.6992 26.6455 98.6553 26.6396 98.6436C26.6279 98.6318 26.6104 98.6025 26.5869 98.5557C26.5635 98.5088 26.5371 98.4561 26.5078 98.3975C26.4844 98.3389 26.458 98.2832 26.4287 98.2305C26.4053 98.1719 26.3848 98.1279 26.3672 98.0986C26.3027 97.999 26.2119 97.9404 26.0947 97.9229C25.9834 97.8994 25.8721 97.8877 25.7607 97.8877L25.585 97.8877C25.374 97.8877 25.1748 97.9023 24.9873 97.9316C24.8057 97.9609 24.6123 97.9756 24.4072 97.9756C24.3662 97.9756 24.3252 97.9727 24.2842 97.9668C24.2432 97.9609 24.2021 97.958 24.1611 97.958C24.1201 97.999 24.0996 98.0312 24.0996 98.0547C24.0879 98.0605 24.0732 98.084 24.0557 98.125C24.0439 98.1602 24.0293 98.2012 24.0117 98.248C24 98.2891 23.9854 98.3301 23.9678 98.3711C23.9561 98.4062 23.9502 98.4268 23.9502 98.4326C23.9502 98.4443 23.9297 98.4795 23.8887 98.5381C23.8535 98.5967 23.8271 98.6318 23.8096 98.6436C23.7393 98.79 23.6982 98.9424 23.6865 99.1006C23.6748 99.2529 23.6689 99.4111 23.6689 99.5752C23.6689 99.6689 23.6982 99.7393 23.7568 99.7861C23.8154 99.8271 23.8887 99.8594 23.9766 99.8828C24.0645 99.9062 24.1582 99.9268 24.2578 99.9443C24.3574 99.9561 24.4512 99.9766 24.5391 100.006C24.627 100.029 24.7002 100.067 24.7588 100.12C24.8174 100.173 24.8467 100.249 24.8467 100.349C24.8467 100.542 24.7559 100.662 24.5742 100.709C24.5508 100.709 24.5068 100.706 24.4424 100.7C24.3838 100.694 24.3223 100.688 24.2578 100.683C24.1934 100.677 24.1318 100.671 24.0732 100.665C24.0146 100.659 23.9736 100.653 23.9502 100.647L23.3262 100.647L23.0801 100.647C23.0625 100.647 23.0156 100.645 22.9395 100.639C22.8633 100.633 22.7783 100.627 22.6846 100.621C22.5908 100.609 22.5059 100.601 22.4297 100.595C22.3535 100.583 22.3066 100.577 22.2891 100.577L22.2451 100.577ZM31.1924 100.621C31.1807 100.621 31.1455 100.627 31.0869 100.639C31.0342 100.656 31.0049 100.665 30.999 100.665L30.9639 100.665C30.8877 100.665 30.8115 100.662 30.7354 100.656C30.665 100.65 30.6006 100.636 30.542 100.612C30.4893 100.589 30.4453 100.554 30.4102 100.507C30.375 100.46 30.3574 100.396 30.3574 100.313L30.3574 100.182C30.3633 100.123 30.4336 100.082 30.5684 100.059C30.709 100.029 30.8643 100.012 31.0342 100.006C31.2041 99.9941 31.3652 99.9854 31.5176 99.9795C31.6699 99.9678 31.7607 99.9443 31.79 99.9092C31.7959 99.8799 31.8018 99.8535 31.8076 99.8301C31.8135 99.8066 31.8193 99.7861 31.8252 99.7686C31.8311 99.751 31.834 99.7363 31.834 99.7246C31.834 99.7012 31.8369 99.666 31.8428 99.6191C31.8545 99.5664 31.8633 99.5137 31.8691 99.4609C31.8809 99.4023 31.8896 99.3496 31.8955 99.3027C31.9014 99.2559 31.9043 99.2236 31.9043 99.2061C31.9043 99.1592 31.9072 99.0625 31.9131 98.916C31.9189 98.7637 31.9248 98.5996 31.9307 98.4238C31.9365 98.248 31.9424 98.0781 31.9482 97.9141C31.9541 97.75 31.957 97.6328 31.957 97.5625C31.957 97.5332 31.957 97.4805 31.957 97.4043C31.9629 97.3223 31.9658 97.2344 31.9658 97.1406C31.9658 97.0469 31.9629 96.9619 31.957 96.8857C31.957 96.8096 31.957 96.751 31.957 96.71L32.001 96.5957C32.001 96.5898 32.0039 96.5312 32.0098 96.4199C32.0156 96.3027 32.0215 96.165 32.0273 96.0068C32.0391 95.8486 32.0479 95.6875 32.0537 95.5234C32.0654 95.3594 32.0713 95.2246 32.0713 95.1191L32.0713 94.5215L32.0713 93.8975C32.0713 93.874 32.0654 93.8389 32.0537 93.792C32.0479 93.7451 32.042 93.6982 32.0361 93.6514C32.0303 93.5986 32.0215 93.5547 32.0098 93.5195C32.0039 93.4785 32.001 93.4521 32.001 93.4404C31.9717 93.3525 31.9131 93.291 31.8252 93.2559C31.7432 93.2148 31.6436 93.1855 31.5264 93.168C31.415 93.1504 31.2949 93.1416 31.166 93.1416C31.043 93.1357 30.9287 93.124 30.8232 93.1064C30.7178 93.0889 30.6299 93.0596 30.5596 93.0186C30.4951 92.9717 30.4629 92.9014 30.4629 92.8076C30.4629 92.7549 30.4805 92.708 30.5156 92.667C30.5508 92.6201 30.5918 92.5791 30.6387 92.5439C30.6855 92.5088 30.7354 92.4824 30.7881 92.4648C30.8467 92.4414 30.8965 92.4297 30.9375 92.4297C31.0195 92.4297 31.1191 92.4414 31.2363 92.4648C31.3535 92.4883 31.4443 92.4941 31.5088 92.4824C31.5264 92.4824 31.5615 92.4795 31.6143 92.4736C31.667 92.4678 31.7227 92.4619 31.7812 92.4561C31.8457 92.4502 31.9043 92.4443 31.957 92.4385C32.0156 92.4326 32.0537 92.4297 32.0713 92.4297C32.1006 92.4297 32.168 92.4326 32.2734 92.4385C32.3789 92.4443 32.4902 92.4502 32.6074 92.4561C32.7305 92.4619 32.8447 92.4707 32.9502 92.4824C33.0557 92.4883 33.123 92.4941 33.1523 92.5L33.2578 92.5L33.3369 92.5C33.3486 92.4941 33.375 92.4883 33.416 92.4824C33.457 92.4707 33.498 92.4619 33.5391 92.4561C33.5859 92.4502 33.627 92.4443 33.6621 92.4385C33.7031 92.4326 33.7266 92.4297 33.7324 92.4297L34.1719 92.4297C34.1777 92.4297 34.1982 92.4268 34.2334 92.4209C34.2686 92.415 34.3037 92.4092 34.3389 92.4033C34.3799 92.3975 34.415 92.3916 34.4443 92.3857C34.4795 92.3799 34.5 92.377 34.5059 92.377L34.541 92.377C34.5527 92.377 34.5615 92.377 34.5674 92.377C34.5791 92.3711 34.5908 92.3682 34.6025 92.3682C34.6729 92.3682 34.7432 92.3711 34.8135 92.377C34.8838 92.3828 34.9482 92.3975 35.0068 92.4209C35.0654 92.4385 35.1123 92.4707 35.1475 92.5176C35.1885 92.5645 35.209 92.6289 35.209 92.7109C35.209 92.7285 35.2031 92.7549 35.1914 92.79C35.1797 92.8193 35.1738 92.8398 35.1738 92.8516C35.127 92.8809 35.0537 92.9248 34.9541 92.9834C34.8545 93.0361 34.7725 93.0684 34.708 93.0801C34.6846 93.0801 34.6318 93.0859 34.5498 93.0977C34.4736 93.1035 34.3916 93.1123 34.3037 93.124C34.2158 93.1299 34.1338 93.1387 34.0576 93.1504C33.9814 93.1562 33.9346 93.1592 33.917 93.1592C33.8701 93.165 33.8291 93.1855 33.7939 93.2207C33.7646 93.25 33.7441 93.2881 33.7324 93.335C33.6797 93.5986 33.6445 93.8594 33.627 94.1172C33.6152 94.375 33.6094 94.6387 33.6094 94.9082L33.6094 95.752L33.6094 96.0332C33.6094 96.0391 33.6035 96.0742 33.5918 96.1387C33.5859 96.1973 33.5771 96.2646 33.5654 96.3408C33.5596 96.4111 33.5508 96.4785 33.5391 96.543C33.5332 96.6074 33.5303 96.6484 33.5303 96.666L33.5303 98.002L33.5303 98.5117C33.5303 98.5293 33.5273 98.5674 33.5215 98.626C33.5156 98.6846 33.5098 98.7461 33.5039 98.8105C33.498 98.875 33.4922 98.9336 33.4863 98.9863C33.4805 99.0391 33.4775 99.0713 33.4775 99.083L33.4775 99.127L33.4775 99.2061C33.4775 99.2178 33.4863 99.25 33.5039 99.3027C33.5215 99.3496 33.5303 99.3789 33.5303 99.3906C33.5303 99.4023 33.5215 99.4229 33.5039 99.4521C33.4863 99.4756 33.4775 99.4961 33.4775 99.5137C33.4717 99.5312 33.4688 99.5488 33.4688 99.5664C33.4629 99.5781 33.46 99.5928 33.46 99.6104C33.46 99.6221 33.46 99.6338 33.46 99.6455C33.46 99.7568 33.4922 99.8623 33.5566 99.9619C33.627 100.056 33.7148 100.103 33.8203 100.103L33.873 100.103C34.043 100.073 34.2188 100.047 34.4004 100.023C34.5879 99.9941 34.7666 99.9795 34.9365 99.9795L36.4219 99.9795C36.4453 99.9795 36.4834 99.9766 36.5361 99.9707C36.5947 99.9648 36.6504 99.959 36.7031 99.9531C36.7559 99.9473 36.8027 99.9414 36.8438 99.9355C36.8848 99.9238 36.9082 99.915 36.9141 99.9092C36.9258 99.9033 36.9492 99.8857 36.9844 99.8564C37.0195 99.8213 37.0576 99.7832 37.0986 99.7422C37.1455 99.6953 37.1865 99.6514 37.2217 99.6104C37.2627 99.5693 37.292 99.5371 37.3096 99.5137C37.3096 99.5078 37.3154 99.4932 37.3271 99.4697C37.3389 99.4404 37.3506 99.4141 37.3623 99.3906C37.374 99.3613 37.3857 99.335 37.3975 99.3115C37.4092 99.2881 37.418 99.2734 37.4238 99.2676C37.4238 99.2617 37.4326 99.2529 37.4502 99.2412C37.4736 99.2236 37.4971 99.2061 37.5205 99.1885C37.5439 99.1709 37.5645 99.1562 37.582 99.1445C37.6055 99.1328 37.6201 99.127 37.626 99.127L37.6699 99.083C37.6816 99.0771 37.7051 99.0449 37.7402 98.9863C37.7754 98.9219 37.793 98.8838 37.793 98.8721C37.8164 98.8486 37.8457 98.8135 37.8809 98.7666C37.9219 98.7139 37.9629 98.6611 38.0039 98.6084C38.0508 98.5498 38.0918 98.4971 38.127 98.4502C38.1621 98.3975 38.1885 98.3623 38.2061 98.3447C38.2295 98.3154 38.2441 98.2979 38.25 98.292C38.2617 98.2861 38.291 98.2832 38.3379 98.2832C38.4316 98.2832 38.5049 98.3213 38.5576 98.3975C38.6104 98.4678 38.6484 98.5527 38.6719 98.6523C38.6953 98.752 38.707 98.8545 38.707 98.96C38.7129 99.0596 38.7158 99.1416 38.7158 99.2061C38.7158 99.2354 38.7158 99.2705 38.7158 99.3115C38.7158 99.3525 38.7158 99.3936 38.7158 99.4346C38.7158 99.4756 38.7129 99.5107 38.707 99.54C38.707 99.5693 38.707 99.584 38.707 99.584C38.707 99.5957 38.6982 99.6279 38.6807 99.6807C38.6631 99.7275 38.6543 99.7568 38.6543 99.7686C38.6426 99.9033 38.6367 100.021 38.6367 100.12C38.6367 100.214 38.6221 100.296 38.5928 100.366C38.5693 100.437 38.5225 100.495 38.4521 100.542C38.3877 100.589 38.2793 100.63 38.127 100.665C38.0742 100.671 37.9775 100.674 37.8369 100.674C37.6963 100.68 37.5439 100.683 37.3799 100.683C37.2217 100.683 37.0693 100.683 36.9229 100.683C36.7822 100.683 36.6826 100.683 36.624 100.683C36.5186 100.683 36.3838 100.683 36.2197 100.683C36.0557 100.683 35.8945 100.683 35.7363 100.683C35.584 100.683 35.4492 100.68 35.332 100.674C35.2148 100.674 35.1533 100.671 35.1475 100.665C35.1182 100.665 35.0596 100.662 34.9717 100.656C34.8896 100.656 34.7959 100.653 34.6904 100.647C34.5908 100.647 34.4912 100.645 34.3916 100.639C34.2979 100.633 34.2246 100.627 34.1719 100.621C34.166 100.621 34.1484 100.618 34.1191 100.612C34.0898 100.606 34.0576 100.601 34.0225 100.595C33.9873 100.589 33.9551 100.583 33.9258 100.577C33.8965 100.571 33.8789 100.565 33.873 100.56L33.8203 100.56L33.7324 100.56C33.7031 100.565 33.6445 100.571 33.5566 100.577C33.4688 100.583 33.375 100.589 33.2754 100.595C33.1758 100.601 33.0791 100.606 32.9854 100.612C32.8975 100.618 32.8418 100.621 32.8184 100.621L32.2295 100.621C32.2178 100.621 32.1768 100.627 32.1064 100.639C32.042 100.656 32.0068 100.665 32.001 100.665C31.96 100.688 31.9102 100.7 31.8516 100.7C31.7988 100.706 31.7578 100.709 31.7285 100.709C31.7109 100.709 31.6758 100.703 31.623 100.691C31.5703 100.686 31.5117 100.677 31.4473 100.665C31.3887 100.653 31.333 100.642 31.2803 100.63C31.2275 100.624 31.1982 100.621 31.1924 100.621ZM40.4912 93.6602C40.4736 93.5488 40.4502 93.4609 40.4209 93.3965C40.3916 93.3262 40.3535 93.2705 40.3066 93.2295C40.2598 93.1826 40.2012 93.1416 40.1309 93.1064C40.0605 93.0713 39.9727 93.0273 39.8672 92.9746C39.8027 92.9453 39.7354 92.9248 39.665 92.9131C39.6006 92.8955 39.5596 92.8809 39.542 92.8691C39.5068 92.8281 39.4805 92.7725 39.4629 92.7021C39.4453 92.626 39.4365 92.5703 39.4365 92.5352C39.4365 92.5234 39.4365 92.5 39.4365 92.4648C39.4424 92.4238 39.457 92.3945 39.4805 92.377C39.4922 92.3711 39.5244 92.3623 39.5771 92.3506C39.6299 92.3389 39.6709 92.3271 39.7002 92.3154C39.7588 92.3096 39.8232 92.3037 39.8936 92.2979C39.9697 92.292 40.04 92.2891 40.1045 92.2891C40.2041 92.2891 40.3066 92.2979 40.4121 92.3154C40.5176 92.3271 40.6553 92.3477 40.8252 92.377L41.1592 92.377C41.2705 92.377 41.376 92.377 41.4756 92.377C41.5752 92.377 41.6719 92.374 41.7656 92.3682C41.8594 92.3623 41.9531 92.3564 42.0469 92.3506C42.1406 92.3447 42.2432 92.333 42.3545 92.3154C42.3721 92.3154 42.4072 92.3066 42.46 92.2891C42.5127 92.2715 42.5449 92.2627 42.5566 92.2627L42.6182 92.2627C42.7529 92.2627 42.876 92.2861 42.9873 92.333C43.1045 92.3799 43.1631 92.4766 43.1631 92.623C43.1631 92.7227 43.1279 92.7988 43.0576 92.8516C42.9873 92.9043 42.9023 92.9512 42.8027 92.9922C42.709 93.0332 42.6123 93.0742 42.5127 93.1152C42.4189 93.1504 42.3457 93.2002 42.293 93.2646C42.2344 93.3291 42.1875 93.4082 42.1523 93.502C42.1172 93.5898 42.0879 93.6865 42.0645 93.792C42.0469 93.8916 42.0352 93.9912 42.0293 94.0908C42.0234 94.1904 42.0205 94.2783 42.0205 94.3545C42.0205 94.4482 42.0322 94.5244 42.0557 94.583C42.085 94.6416 42.0996 94.7119 42.0996 94.7939C42.0996 94.8115 42.0967 94.8379 42.0908 94.873C42.0908 94.9023 42.082 94.9229 42.0645 94.9346C42.0645 94.9463 42.0615 94.9785 42.0557 95.0312C42.0498 95.084 42.0439 95.1426 42.0381 95.207C42.0381 95.2656 42.0352 95.3213 42.0293 95.374C42.0234 95.4268 42.0205 95.4619 42.0205 95.4795L42.0205 96.2529C42.0205 96.2822 42.0088 96.332 41.9854 96.4023C41.9678 96.4727 41.9561 96.5195 41.9502 96.543L41.9502 96.6396L41.9502 96.7275C41.9502 96.7393 41.9531 96.7686 41.959 96.8154C41.9707 96.8623 41.9795 96.9121 41.9854 96.9648C41.9971 97.0176 42.0059 97.0674 42.0117 97.1143C42.0176 97.1611 42.0205 97.1904 42.0205 97.2021C42.0264 97.2314 42.0293 97.2842 42.0293 97.3604C42.0352 97.4307 42.041 97.5068 42.0469 97.5889C42.0527 97.665 42.0557 97.7383 42.0557 97.8086C42.0615 97.8789 42.0645 97.9287 42.0645 97.958C42.0703 98.0049 42.082 98.0664 42.0996 98.1426C42.1172 98.2129 42.1348 98.2861 42.1523 98.3623C42.1758 98.4385 42.1992 98.5117 42.2227 98.582C42.2461 98.6523 42.2695 98.708 42.293 98.749C42.3164 98.8076 42.3574 98.8809 42.416 98.9688C42.4805 99.0566 42.5508 99.1445 42.627 99.2324C42.7031 99.3145 42.7793 99.3877 42.8555 99.4521C42.9375 99.5166 43.0137 99.5576 43.084 99.5752C43.0957 99.5752 43.1221 99.5869 43.1631 99.6104C43.2041 99.6279 43.2393 99.6367 43.2686 99.6367C43.3096 99.6367 43.3301 99.6396 43.3301 99.6455C43.3945 99.6514 43.4531 99.666 43.5059 99.6895C43.5586 99.707 43.6084 99.7275 43.6553 99.751C43.7021 99.7686 43.752 99.7861 43.8047 99.8037C43.8574 99.8213 43.916 99.8301 43.9805 99.8301L44.1035 99.8301C44.1094 99.8242 44.1299 99.8125 44.165 99.7949C44.2002 99.7773 44.2354 99.7598 44.2705 99.7422C44.3115 99.7246 44.3467 99.71 44.376 99.6982C44.4111 99.6865 44.4316 99.6807 44.4375 99.6807L44.5781 99.6807C44.6367 99.6631 44.6982 99.6455 44.7627 99.6279C44.8096 99.6162 44.8594 99.6074 44.9121 99.6016C44.9648 99.5898 45.0059 99.5811 45.0352 99.5752C45.1934 99.5225 45.334 99.4258 45.457 99.2852C45.5859 99.1387 45.6885 99.0068 45.7646 98.8896C45.7705 98.8779 45.7793 98.8516 45.791 98.8105C45.8086 98.7695 45.8232 98.7285 45.835 98.6875C45.8525 98.6406 45.8672 98.5967 45.8789 98.5557C45.8906 98.5146 45.8965 98.4883 45.8965 98.4766C45.9668 98.2949 46.0195 98.1045 46.0547 97.9053C46.0898 97.7061 46.1133 97.5039 46.125 97.2988C46.1367 97.0879 46.1455 96.8799 46.1514 96.6748C46.1572 96.4697 46.1689 96.2705 46.1865 96.0771C46.1865 96.0713 46.1895 96.0537 46.1953 96.0244C46.2012 95.9893 46.2041 95.9541 46.2041 95.9189C46.21 95.8779 46.2158 95.8428 46.2217 95.8135C46.2275 95.7783 46.2305 95.7549 46.2305 95.7432L46.2305 95.374L46.2305 94.9785C46.2246 94.9316 46.2158 94.8467 46.2041 94.7236C46.1924 94.6006 46.1777 94.4688 46.1602 94.3281C46.1484 94.1875 46.1367 94.0557 46.125 93.9326C46.1191 93.8037 46.1162 93.7129 46.1162 93.6602C46.1045 93.6309 46.0811 93.5752 46.0459 93.4932C46.0107 93.4053 45.9814 93.3496 45.958 93.3262C45.9521 93.2969 45.9434 93.2676 45.9316 93.2383C45.9199 93.2031 45.9082 93.1855 45.8965 93.1855C45.8555 93.1445 45.8174 93.124 45.7822 93.124C45.7529 93.124 45.7266 93.127 45.7031 93.1328C45.6855 93.1387 45.665 93.1416 45.6416 93.1416C45.6123 93.1416 45.5859 93.1357 45.5625 93.124C45.416 93.0947 45.2812 93.0596 45.1582 93.0186C45.041 92.9775 44.9326 92.8926 44.833 92.7637C44.8213 92.7344 44.8125 92.7139 44.8066 92.7021C44.8066 92.6904 44.8066 92.6641 44.8066 92.623C44.8066 92.6113 44.8096 92.5996 44.8154 92.5879C44.8213 92.5703 44.8271 92.5557 44.833 92.5439C44.9268 92.4268 45.041 92.3564 45.1758 92.333C45.3105 92.3037 45.4512 92.2891 45.5977 92.2891C45.7031 92.2891 45.8086 92.2949 45.9141 92.3066C46.0195 92.3125 46.1221 92.3154 46.2217 92.3154C46.2686 92.3154 46.3359 92.3066 46.4238 92.2891C46.5176 92.2715 46.5967 92.2627 46.6611 92.2627L47.2061 92.2627C47.2588 92.2627 47.3203 92.2598 47.3906 92.2539C47.4668 92.248 47.543 92.2451 47.6191 92.2451C47.7363 92.2451 47.8506 92.2539 47.9619 92.2715C48.0732 92.2891 48.167 92.3242 48.2432 92.377C48.2549 92.3945 48.2607 92.4268 48.2607 92.4736C48.2666 92.5205 48.2695 92.5498 48.2695 92.5615C48.2695 92.6787 48.2402 92.7695 48.1816 92.834C48.1289 92.8926 48.0586 92.9395 47.9707 92.9746C47.8887 93.0039 47.7979 93.0273 47.6982 93.0449C47.6045 93.0625 47.5166 93.0889 47.4346 93.124C47.3408 93.165 47.2646 93.2295 47.2061 93.3174C47.1475 93.4053 47.1182 93.502 47.1182 93.6074C47.1182 93.7012 47.127 93.7832 47.1445 93.8535C47.168 93.9238 47.1797 94.0059 47.1797 94.0996L47.1797 94.249C47.1797 94.2666 47.168 94.3047 47.1445 94.3633C47.127 94.4219 47.1182 94.4541 47.1182 94.46L47.1182 94.6797L47.1182 95.1895C47.1123 95.2539 47.1064 95.3652 47.1006 95.5234C47.0947 95.6816 47.0859 95.8516 47.0742 96.0332C47.0684 96.209 47.0625 96.376 47.0566 96.5342C47.0508 96.6924 47.0449 96.8037 47.0391 96.8682C47.0098 96.9268 46.9893 96.9854 46.9775 97.0439C46.9658 97.0967 46.957 97.1523 46.9512 97.2109C46.9453 97.2637 46.9395 97.3164 46.9336 97.3691C46.9336 97.4219 46.9248 97.4775 46.9072 97.5361C46.9014 97.5537 46.8926 97.5859 46.8809 97.6328C46.8691 97.6738 46.8545 97.7207 46.8369 97.7734C46.8252 97.8262 46.8135 97.876 46.8018 97.9229C46.79 97.9639 46.7842 97.9902 46.7842 98.002C46.7725 98.0137 46.7637 98.043 46.7578 98.0898C46.752 98.1309 46.7461 98.1748 46.7402 98.2217C46.7402 98.2627 46.7344 98.3037 46.7227 98.3447C46.7168 98.3799 46.7109 98.3975 46.7051 98.3975C46.7051 98.415 46.6846 98.4561 46.6436 98.5205C46.6025 98.5791 46.5791 98.6143 46.5732 98.626C46.5615 98.6377 46.541 98.6758 46.5117 98.7402C46.4824 98.8047 46.4473 98.875 46.4062 98.9512C46.3711 99.0273 46.3359 99.0977 46.3008 99.1621C46.2656 99.2266 46.2422 99.2676 46.2305 99.2852C46.125 99.4844 45.9873 99.6631 45.8174 99.8213C45.6533 99.9795 45.4775 100.141 45.29 100.305C45.2666 100.322 45.2314 100.349 45.1846 100.384C45.1377 100.413 45.0879 100.445 45.0352 100.48C44.9883 100.516 44.9443 100.548 44.9033 100.577C44.8623 100.601 44.8389 100.615 44.833 100.621L44.5781 100.621C44.4668 100.633 44.3672 100.645 44.2793 100.656C44.1973 100.674 44.1152 100.688 44.0332 100.7C43.9512 100.718 43.8662 100.732 43.7783 100.744C43.6904 100.756 43.5908 100.762 43.4795 100.762L42.9521 100.762C42.8877 100.732 42.8203 100.712 42.75 100.7C42.6797 100.688 42.6094 100.677 42.5391 100.665C42.4746 100.659 42.4102 100.647 42.3457 100.63C42.2812 100.618 42.2197 100.595 42.1611 100.56C42.1436 100.554 42.1055 100.533 42.0469 100.498C41.9883 100.457 41.9209 100.41 41.8447 100.357C41.7744 100.305 41.7041 100.255 41.6338 100.208C41.5635 100.155 41.5107 100.111 41.4756 100.076L41.4141 100.032C41.3672 99.9561 41.3174 99.8916 41.2646 99.8389C41.2119 99.7803 41.1592 99.7246 41.1064 99.6719C41.0537 99.6191 41.001 99.5635 40.9482 99.5049C40.9014 99.4404 40.8604 99.3672 40.8252 99.2852C40.7021 99.0039 40.6143 98.7021 40.5615 98.3799C40.5146 98.0518 40.4912 97.7295 40.4912 97.4131C40.4854 97.3428 40.4795 97.2461 40.4736 97.123C40.4736 96.9941 40.4736 96.8477 40.4736 96.6836C40.4736 96.5137 40.4736 96.332 40.4736 96.1387C40.4736 95.9453 40.4736 95.7461 40.4736 95.541C40.4736 95.3418 40.4736 95.1455 40.4736 94.9521C40.4736 94.7588 40.4736 94.5801 40.4736 94.416C40.4736 94.2461 40.4736 94.0967 40.4736 93.9678C40.4795 93.833 40.4854 93.7305 40.4912 93.6602ZM54.1318 93.625C54.1787 93.6016 54.2109 93.5605 54.2285 93.502C54.2461 93.4434 54.2549 93.3848 54.2549 93.3262C54.2549 93.2031 54.208 93.1182 54.1143 93.0713C54.0264 93.0186 53.9268 92.9805 53.8154 92.957C53.71 92.9277 53.6104 92.8984 53.5166 92.8691C53.4287 92.834 53.3848 92.7725 53.3848 92.6846C53.3848 92.6553 53.3965 92.6318 53.4199 92.6143C53.4434 92.5908 53.4727 92.5732 53.5078 92.5615C53.543 92.5439 53.5781 92.5293 53.6133 92.5176C53.6543 92.5059 53.6895 92.4941 53.7188 92.4824C53.748 92.4707 53.7949 92.459 53.8594 92.4473C53.9297 92.4355 53.9707 92.4297 53.9824 92.4297L55.5293 92.4297C55.6348 92.3828 55.7373 92.3564 55.8369 92.3506C55.9365 92.3389 56.0361 92.333 56.1357 92.333C56.2119 92.333 56.2822 92.3359 56.3467 92.3418C56.417 92.3418 56.4756 92.3506 56.5225 92.3682C56.5752 92.3857 56.6162 92.418 56.6455 92.4648C56.6748 92.5117 56.6895 92.5791 56.6895 92.667C56.6895 92.79 56.6543 92.8838 56.584 92.9482C56.5195 93.0127 56.4375 93.0625 56.3379 93.0977C56.2383 93.127 56.1328 93.1504 56.0215 93.168C55.916 93.1855 55.8223 93.2061 55.7402 93.2295C55.4766 93.3232 55.2422 93.4492 55.0371 93.6074C54.8379 93.7598 54.6475 93.9473 54.4658 94.1699C54.4482 94.1875 54.416 94.2256 54.3691 94.2842C54.3223 94.3369 54.2695 94.3955 54.2109 94.46C54.1582 94.5244 54.1084 94.5859 54.0615 94.6445C54.0146 94.6973 53.9824 94.7324 53.9648 94.75C53.9414 94.7793 53.915 94.8145 53.8857 94.8555C53.8564 94.8965 53.8213 94.9316 53.7803 94.9609C53.7041 95.0254 53.6309 95.1074 53.5605 95.207C53.4902 95.3066 53.4316 95.4033 53.3848 95.4971C53.3613 95.5381 53.3408 95.5762 53.3232 95.6113C53.3115 95.6465 53.3057 95.6934 53.3057 95.752C53.3057 95.875 53.3379 96.0039 53.4023 96.1387C53.4668 96.2734 53.5283 96.3994 53.5869 96.5166C53.6104 96.5518 53.6396 96.6045 53.6748 96.6748C53.71 96.7393 53.7451 96.8037 53.7803 96.8682C53.8154 96.9326 53.8447 96.9912 53.8682 97.0439C53.8975 97.0967 53.915 97.1289 53.9209 97.1406C53.9268 97.1523 53.9473 97.1875 53.9824 97.2461C54.0234 97.2988 54.0674 97.3604 54.1143 97.4307C54.1611 97.4951 54.2021 97.5566 54.2373 97.6152C54.2783 97.6738 54.3047 97.7119 54.3164 97.7295L54.5273 98.125C54.5977 98.2891 54.6709 98.4531 54.7471 98.6172C54.8232 98.7754 54.9053 98.9307 54.9932 99.083C55.0811 99.2295 55.1807 99.3701 55.292 99.5049C55.4033 99.6396 55.5322 99.7686 55.6787 99.8916C55.7314 99.9326 55.7988 99.9678 55.8809 99.9971C55.9629 100.021 56.042 100.047 56.1182 100.076C56.2002 100.105 56.2676 100.146 56.3203 100.199C56.3789 100.246 56.4082 100.316 56.4082 100.41C56.4082 100.527 56.3701 100.601 56.2939 100.63C56.2236 100.665 56.1416 100.683 56.0479 100.683C55.9951 100.683 55.9395 100.68 55.8809 100.674C55.8281 100.668 55.7812 100.665 55.7402 100.665C55.7168 100.677 55.6582 100.686 55.5645 100.691C55.4707 100.703 55.3682 100.715 55.2568 100.727C55.1514 100.738 55.0518 100.747 54.958 100.753C54.8643 100.759 54.8057 100.762 54.7822 100.762L54.7383 100.762C54.7324 100.762 54.7119 100.759 54.6768 100.753C54.6416 100.747 54.6035 100.738 54.5625 100.727C54.5273 100.715 54.4893 100.703 54.4482 100.691C54.4131 100.686 54.3926 100.677 54.3867 100.665C54.3574 100.665 54.2959 100.662 54.2021 100.656C54.1143 100.65 54.0176 100.645 53.9121 100.639C53.8125 100.639 53.7188 100.636 53.6309 100.63C53.543 100.624 53.4873 100.621 53.4639 100.621C53.4404 100.621 53.3906 100.615 53.3145 100.604C53.2441 100.586 53.1973 100.571 53.1738 100.56L53.1738 100.498C53.1738 100.404 53.1943 100.34 53.2354 100.305C53.2822 100.27 53.3291 100.24 53.376 100.217C53.4287 100.188 53.4756 100.152 53.5166 100.111C53.5635 100.07 53.5869 99.9971 53.5869 99.8916C53.5869 99.833 53.5693 99.7393 53.5342 99.6104C53.499 99.4814 53.4492 99.3408 53.3848 99.1885C53.3262 99.0303 53.2588 98.8691 53.1826 98.7051C53.1123 98.541 53.0361 98.3916 52.9541 98.2568C52.8779 98.1221 52.8047 98.0107 52.7344 97.9229C52.6641 97.835 52.6025 97.791 52.5498 97.791C52.4502 97.791 52.3682 97.8203 52.3037 97.8789C52.2393 97.9316 52.1836 97.999 52.1367 98.0811C52.0898 98.1572 52.0488 98.2393 52.0137 98.3271C51.9785 98.415 51.9434 98.4912 51.9082 98.5557C51.8906 98.585 51.8467 98.6553 51.7764 98.7666C51.7061 98.8721 51.627 98.9893 51.5391 99.1182C51.457 99.2471 51.3779 99.3672 51.3018 99.4785C51.2314 99.5898 51.1875 99.6572 51.1699 99.6807C51.1582 99.6865 51.1436 99.707 51.126 99.7422C51.1143 99.7715 51.1025 99.792 51.0908 99.8037L51.0908 99.8652C51.0908 99.9473 51.126 100.006 51.1963 100.041C51.2666 100.076 51.3486 100.108 51.4424 100.138C51.5361 100.161 51.6299 100.193 51.7236 100.234C51.8232 100.27 51.8994 100.328 51.9521 100.41C51.9521 100.486 51.9316 100.539 51.8906 100.568C51.8555 100.592 51.8115 100.609 51.7588 100.621L49.2979 100.621C49.251 100.621 49.2217 100.604 49.21 100.568C49.2041 100.527 49.2012 100.498 49.2012 100.48L49.2012 100.41C49.2715 100.328 49.3506 100.261 49.4385 100.208C49.5322 100.155 49.626 100.108 49.7197 100.067C49.8193 100.026 49.9189 99.9883 50.0186 99.9531C50.1182 99.9121 50.2119 99.8623 50.2998 99.8037C50.3232 99.7803 50.3701 99.7363 50.4404 99.6719C50.5107 99.6016 50.584 99.5283 50.6602 99.4521C50.7422 99.376 50.8184 99.3027 50.8887 99.2324C50.9648 99.1621 51.0176 99.1123 51.0469 99.083C51.1992 98.9072 51.3281 98.7256 51.4336 98.5381C51.5449 98.3447 51.6533 98.1484 51.7588 97.9492C51.7705 97.9316 51.7969 97.9053 51.8379 97.8701C51.8789 97.8291 51.9023 97.8027 51.9082 97.791C51.9258 97.7676 51.9492 97.7354 51.9785 97.6943C52.0137 97.6475 52.043 97.6035 52.0664 97.5625C52.0957 97.5215 52.1191 97.4863 52.1367 97.457C52.1602 97.4219 52.1719 97.4014 52.1719 97.3955C52.1719 97.3955 52.1719 97.3809 52.1719 97.3516C52.1777 97.3164 52.1807 97.2783 52.1807 97.2373C52.1865 97.1963 52.1895 97.1582 52.1895 97.123C52.1953 97.082 52.1982 97.0527 52.1982 97.0352C52.1982 97.0176 52.1953 96.9912 52.1895 96.9561C52.1895 96.9209 52.1865 96.8828 52.1807 96.8418C52.1807 96.8008 52.1777 96.7627 52.1719 96.7275C52.1719 96.6865 52.1719 96.6602 52.1719 96.6484C52.0078 96.5488 51.8848 96.4346 51.8027 96.3057C51.7207 96.1709 51.6445 96.0186 51.5742 95.8486C51.5684 95.8311 51.5508 95.7988 51.5215 95.752C51.4922 95.7051 51.4629 95.6582 51.4336 95.6113C51.4043 95.5586 51.375 95.5117 51.3457 95.4707C51.3223 95.4238 51.3076 95.3975 51.3018 95.3916C51.2783 95.3447 51.2432 95.2715 51.1963 95.1719C51.1553 95.0723 51.1201 95.002 51.0908 94.9609C51.0791 94.9551 51.0674 94.9375 51.0557 94.9082C51.0439 94.873 51.0322 94.8379 51.0205 94.8027C51.0088 94.7676 50.9971 94.7324 50.9854 94.6973C50.9795 94.6621 50.9736 94.6387 50.9678 94.627L50.9502 94.6094C50.9443 94.6035 50.9355 94.6006 50.9238 94.6006C50.918 94.5947 50.9121 94.5859 50.9062 94.5742C50.8828 94.5566 50.8623 94.5391 50.8447 94.5215C50.7275 94.375 50.6338 94.2227 50.5635 94.0645C50.499 93.9062 50.4111 93.7598 50.2998 93.625C50.2236 93.5371 50.1445 93.4609 50.0625 93.3965C49.9805 93.3262 49.8955 93.2617 49.8076 93.2031C49.7256 93.1445 49.6406 93.0859 49.5527 93.0273C49.4648 92.9688 49.3799 92.9014 49.2979 92.8252C49.251 92.7959 49.2217 92.7607 49.21 92.7197C49.2041 92.6729 49.2012 92.626 49.2012 92.5791C49.2012 92.5146 49.2158 92.4736 49.2451 92.4561C49.2744 92.4385 49.3213 92.4297 49.3857 92.4297L49.4209 92.4297C49.4209 92.4297 49.4326 92.4326 49.4561 92.4385C49.4854 92.4443 49.5146 92.4502 49.5439 92.4561C49.5791 92.4619 49.6084 92.4678 49.6318 92.4736C49.6611 92.4795 49.6816 92.4824 49.6934 92.4824L49.7373 92.4824C50.1123 92.4824 50.4814 92.4707 50.8447 92.4473C51.2139 92.4238 51.583 92.4121 51.9521 92.4121C52.0928 92.4121 52.1953 92.4297 52.2598 92.4648C52.3301 92.4941 52.3652 92.5762 52.3652 92.7109C52.3652 92.8281 52.3418 92.9102 52.2949 92.957C52.248 92.998 52.1953 93.0303 52.1367 93.0537C52.0781 93.0771 52.0254 93.1064 51.9785 93.1416C51.9316 93.1768 51.9082 93.2471 51.9082 93.3525C51.9082 93.3994 51.9258 93.4609 51.9609 93.5371C51.9961 93.6074 52.0254 93.6572 52.0488 93.6865C52.0664 93.7158 52.1045 93.7891 52.1631 93.9062C52.2275 94.0176 52.2949 94.1406 52.3652 94.2754C52.4414 94.4043 52.5117 94.5244 52.5762 94.6357C52.6406 94.7471 52.6816 94.8174 52.6992 94.8467C52.7402 94.9053 52.7754 94.9521 52.8047 94.9873C52.8398 95.0225 52.8809 95.04 52.9277 95.04C52.998 95.04 53.0771 95.0107 53.165 94.9521C53.2588 94.8877 53.3789 94.7998 53.5254 94.6885C53.584 94.6416 53.6426 94.5684 53.7012 94.4688C53.7656 94.3633 53.8242 94.2578 53.877 94.1523C53.9297 94.041 53.9766 93.9355 54.0176 93.8359C54.0645 93.7363 54.1025 93.666 54.1318 93.625ZM65.2764 100.604C65.2529 100.604 65.2178 100.606 65.1709 100.612C65.1299 100.612 65.0859 100.612 65.0391 100.612C64.998 100.612 64.96 100.615 64.9248 100.621C64.8896 100.621 64.8721 100.621 64.8721 100.621L64.6611 100.7L63.5801 100.639L61.2773 100.639C61.1895 100.609 61.1133 100.589 61.0488 100.577C60.9902 100.565 60.9199 100.56 60.8379 100.56C60.7734 100.56 60.7236 100.562 60.6885 100.568C60.6533 100.574 60.6064 100.592 60.5479 100.621C60.4893 100.621 60.3896 100.618 60.249 100.612C60.1143 100.606 59.9707 100.604 59.8184 100.604C59.666 100.604 59.5195 100.606 59.3789 100.612C59.2441 100.618 59.1533 100.621 59.1064 100.621C59.0889 100.621 59.0566 100.624 59.0098 100.63C58.9688 100.636 58.9219 100.639 58.8691 100.639C58.8223 100.645 58.7754 100.65 58.7285 100.656C58.6875 100.662 58.6611 100.665 58.6494 100.665C58.6318 100.671 58.6113 100.674 58.5879 100.674C58.5703 100.68 58.5527 100.683 58.5352 100.683C58.5234 100.683 58.5117 100.683 58.5 100.683C58.3418 100.683 58.2217 100.665 58.1396 100.63C58.0635 100.601 57.9961 100.507 57.9375 100.349C57.9141 100.349 57.9023 100.343 57.9023 100.331C57.8965 100.325 57.8965 100.316 57.9023 100.305C57.9023 100.258 57.917 100.208 57.9463 100.155C57.9814 100.097 58.0225 100.044 58.0693 99.9971C58.1221 99.9502 58.1748 99.9121 58.2275 99.8828C58.2861 99.8477 58.3418 99.8301 58.3945 99.8301L59.2295 99.8301C59.2412 99.8301 59.2793 99.7979 59.3438 99.7334C59.4082 99.6631 59.4609 99.6104 59.502 99.5752C59.5137 99.5635 59.5254 99.54 59.5371 99.5049C59.5547 99.4639 59.5635 99.4346 59.5635 99.417C59.6338 99.0713 59.6748 98.7285 59.6865 98.3887C59.6982 98.0488 59.7041 97.6943 59.7041 97.3252C59.7041 97.2959 59.7041 97.2314 59.7041 97.1318C59.71 97.0264 59.7129 96.9033 59.7129 96.7627C59.7188 96.6221 59.7246 96.4756 59.7305 96.3232C59.7363 96.165 59.7393 96.0156 59.7393 95.875C59.7451 95.7344 59.748 95.6143 59.748 95.5146C59.7539 95.4092 59.7568 95.3389 59.7568 95.3037L59.7568 94.8291C59.7568 94.3604 59.748 93.8975 59.7305 93.4404C59.7129 92.9834 59.7041 92.5293 59.7041 92.0781L59.7041 92.0166C59.7041 91.999 59.707 91.9551 59.7129 91.8848C59.7188 91.8086 59.7246 91.7295 59.7305 91.6475C59.7363 91.5654 59.7422 91.4893 59.748 91.4189C59.7539 91.3486 59.7568 91.3047 59.7568 91.2871C59.7627 91.2344 59.7686 91.1436 59.7744 91.0146C59.7803 90.8799 59.7861 90.7393 59.792 90.5928C59.7979 90.4404 59.8037 90.2998 59.8096 90.1709C59.8154 90.042 59.8184 89.9512 59.8184 89.8984C59.7891 89.8105 59.7715 89.7197 59.7656 89.626C59.7598 89.5264 59.751 89.4326 59.7393 89.3447C59.7275 89.251 59.7041 89.1631 59.6689 89.0811C59.6338 88.999 59.5781 88.9287 59.502 88.8701C59.4668 88.8643 59.4053 88.8584 59.3174 88.8525C59.2295 88.8467 59.1357 88.8438 59.0361 88.8438C58.9424 88.8379 58.8516 88.832 58.7637 88.8262C58.6758 88.8203 58.6172 88.8145 58.5879 88.8086C58.4941 88.7969 58.3916 88.7822 58.2803 88.7646C58.1689 88.7412 58.0664 88.709 57.9727 88.668C57.8789 88.6211 57.7998 88.5596 57.7354 88.4834C57.6768 88.4072 57.6475 88.3076 57.6475 88.1846L57.6826 88.167C57.6943 88.1611 57.7031 88.1553 57.709 88.1494C57.7148 88.1436 57.7236 88.1406 57.7354 88.1406C57.876 88.0586 58.002 88.0059 58.1133 87.9824C58.2246 87.9531 58.3682 87.9385 58.5439 87.9385L58.5879 87.9385C58.6055 87.9561 58.623 87.9707 58.6406 87.9824C58.6758 88.0059 58.6992 88.0176 58.7109 88.0176C59.0039 88.041 59.2969 88.0586 59.5898 88.0703C59.8828 88.0762 60.1787 88.0791 60.4775 88.0791C60.7236 88.0791 60.9639 88.0762 61.1982 88.0703C61.4326 88.0645 61.6641 88.0615 61.8926 88.0615L63.835 88.0615C63.8584 88.0615 63.8965 88.0586 63.9492 88.0527C64.002 88.0469 64.0576 88.0439 64.1162 88.0439C64.1807 88.0381 64.2422 88.0322 64.3008 88.0264C64.3594 88.0205 64.4033 88.0176 64.4326 88.0176L64.4941 88.0176L64.5469 88.0176C64.5645 88.0176 64.6055 88.0205 64.6699 88.0264C64.7344 88.0322 64.8047 88.0381 64.8809 88.0439C64.957 88.0439 65.0273 88.0469 65.0918 88.0527C65.1621 88.0586 65.2061 88.0615 65.2236 88.0615L66.2695 88.0615C66.3164 88.0674 66.3838 88.0732 66.4717 88.0791C66.5654 88.085 66.6562 88.0908 66.7441 88.0967C66.8379 88.1025 66.9199 88.1113 66.9902 88.123C67.0605 88.1289 67.0986 88.1348 67.1045 88.1406C67.1104 88.1406 67.1338 88.1494 67.1748 88.167C67.2158 88.1846 67.2598 88.208 67.3066 88.2373C67.3594 88.2607 67.4092 88.2871 67.4561 88.3164C67.5088 88.3457 67.5498 88.3721 67.5791 88.3955C67.6377 88.4307 67.6846 88.5156 67.7197 88.6504C67.7607 88.7793 67.793 88.9229 67.8164 89.0811C67.8398 89.2393 67.8574 89.3945 67.8691 89.5469C67.8867 89.6992 67.9014 89.8164 67.9131 89.8984C67.9131 89.9277 67.916 89.9805 67.9219 90.0566C67.9336 90.127 67.9424 90.2031 67.9482 90.2852C67.9541 90.3672 67.96 90.4463 67.9658 90.5225C67.9717 90.5986 67.9746 90.6514 67.9746 90.6807L67.9746 90.918L67.9746 91.1641C67.9453 91.2168 67.9072 91.252 67.8604 91.2695C67.8135 91.2812 67.7637 91.2871 67.7109 91.2871L67.6494 91.2871C67.585 91.2461 67.5381 91.2051 67.5088 91.1641C67.4795 91.123 67.4561 91.082 67.4385 91.041C67.4209 90.9941 67.4033 90.9473 67.3857 90.9004C67.374 90.8535 67.3506 90.8037 67.3154 90.751C67.3154 90.7451 67.3037 90.7334 67.2803 90.7158C67.2627 90.6924 67.2422 90.6689 67.2188 90.6455C67.1953 90.6221 67.1719 90.6016 67.1484 90.584C67.125 90.5605 67.1104 90.5459 67.1045 90.54C67.0225 90.4229 66.9404 90.291 66.8584 90.1445C66.7822 89.9922 66.6914 89.8516 66.5859 89.7227C66.5801 89.7109 66.5596 89.6904 66.5244 89.6611C66.4951 89.6318 66.4746 89.6055 66.4629 89.582C66.457 89.5703 66.4365 89.5615 66.4014 89.5557C66.3662 89.5439 66.3428 89.5322 66.3311 89.5205C66.2607 89.4736 66.2051 89.4209 66.1641 89.3623C66.123 89.3037 66.0791 89.248 66.0322 89.1953C65.9912 89.1367 65.9443 89.0811 65.8916 89.0283C65.8389 88.9756 65.7656 88.9316 65.6719 88.8965C65.625 88.8965 65.5342 88.8936 65.3994 88.8877C65.2705 88.876 65.1328 88.8672 64.9863 88.8613C64.8398 88.8496 64.6992 88.8408 64.5645 88.835C64.4355 88.8232 64.3447 88.8145 64.292 88.8086L63.835 88.8086C63.8291 88.8086 63.8027 88.8057 63.7559 88.7998C63.7148 88.7881 63.668 88.7793 63.6152 88.7734C63.5625 88.7617 63.5127 88.7529 63.4658 88.7471C63.4189 88.7354 63.3896 88.7295 63.3779 88.7295L63.2461 88.7295L63.123 88.7295C63.0996 88.7295 63.0469 88.7354 62.9648 88.7471C62.8887 88.7529 62.8037 88.7617 62.71 88.7734C62.6221 88.7793 62.5371 88.7881 62.4551 88.7998C62.3789 88.8057 62.332 88.8086 62.3145 88.8086L61.7959 88.8086C61.7725 88.8086 61.7461 88.8174 61.7168 88.835C61.6875 88.8467 61.6729 88.8584 61.6729 88.8701L61.6729 89.96C61.667 90.1475 61.6406 90.3262 61.5938 90.4961C61.5469 90.666 61.5234 90.8389 61.5234 91.0146C61.5234 91.2783 61.5352 91.5449 61.5586 91.8145C61.5879 92.0781 61.6025 92.3477 61.6025 92.623C61.6025 92.8105 61.5879 93.001 61.5586 93.1943C61.5352 93.3877 61.5234 93.5869 61.5234 93.792L61.5234 93.8535C61.541 93.8711 61.5645 93.8975 61.5938 93.9326C61.623 93.9619 61.6494 93.9766 61.6729 93.9766L61.8926 93.9766L62.1211 93.9766C62.1328 93.9766 62.1592 93.9736 62.2002 93.9678C62.2412 93.9561 62.2852 93.9473 62.332 93.9414C62.3789 93.9297 62.4199 93.9209 62.4551 93.915C62.4961 93.9033 62.5195 93.8975 62.5254 93.8975L63.3076 93.8975C63.3486 93.8975 63.4219 93.8945 63.5273 93.8887C63.6387 93.8828 63.7529 93.8799 63.8701 93.8799C63.9932 93.874 64.1074 93.8682 64.2129 93.8623C64.3184 93.8564 64.3916 93.8535 64.4326 93.8535C64.5205 93.7773 64.585 93.666 64.626 93.5195C64.667 93.3672 64.708 93.2412 64.749 93.1416C64.7549 93.124 64.7607 93.083 64.7666 93.0186C64.7783 92.9482 64.79 92.875 64.8018 92.7988C64.8135 92.7227 64.8252 92.6523 64.8369 92.5879C64.8486 92.5176 64.8604 92.4736 64.8721 92.4561C64.8721 92.4502 64.8779 92.4355 64.8896 92.4121C64.9072 92.3828 64.9248 92.3564 64.9424 92.333C64.96 92.3037 64.9746 92.2773 64.9863 92.2539C65.0039 92.2305 65.0156 92.2158 65.0215 92.21C65.0449 92.1338 65.0596 92.0518 65.0654 91.9639C65.0713 91.876 65.0859 91.7969 65.1094 91.7266C65.1328 91.6504 65.1709 91.5889 65.2236 91.542C65.2764 91.4951 65.3613 91.4717 65.4785 91.4717C65.6074 91.4717 65.6924 91.501 65.7334 91.5596C65.7744 91.6182 65.7949 91.7148 65.7949 91.8496C65.7949 91.8965 65.792 91.9316 65.7861 91.9551C65.7803 91.9727 65.7686 92.0137 65.751 92.0781C65.751 92.084 65.748 92.0986 65.7422 92.1221C65.7363 92.1455 65.7334 92.1719 65.7334 92.2012C65.7334 92.248 65.7363 92.292 65.7422 92.333C65.748 92.3682 65.751 92.3945 65.751 92.4121C65.7451 92.4473 65.7393 92.5205 65.7334 92.6318C65.7275 92.7432 65.7188 92.8721 65.707 93.0186C65.6953 93.165 65.6836 93.3232 65.6719 93.4932C65.6602 93.6572 65.6484 93.8154 65.6367 93.9678C65.625 94.1143 65.6133 94.2432 65.6016 94.3545C65.5957 94.4658 65.5898 94.542 65.584 94.583C65.584 94.5947 65.5869 94.6504 65.5928 94.75C65.5986 94.8438 65.6016 94.9404 65.6016 95.04C65.6016 95.0869 65.5957 95.1396 65.584 95.1982C65.5723 95.251 65.5635 95.2861 65.5576 95.3037C65.5576 95.3037 65.5518 95.3184 65.54 95.3477C65.5342 95.377 65.5254 95.4121 65.5137 95.4531C65.5078 95.4883 65.499 95.5234 65.4873 95.5586C65.4814 95.5879 65.4785 95.6084 65.4785 95.6201C65.4785 95.6377 65.4814 95.6787 65.4873 95.7432C65.4932 95.8076 65.499 95.8779 65.5049 95.9541C65.5166 96.0244 65.5254 96.0918 65.5312 96.1562C65.5371 96.2148 65.54 96.2529 65.54 96.2705C65.54 96.2939 65.54 96.3291 65.54 96.376C65.5459 96.417 65.5488 96.4609 65.5488 96.5078C65.5488 96.5488 65.5488 96.5898 65.5488 96.6309C65.5547 96.6719 65.5576 96.7041 65.5576 96.7275C65.5576 96.8271 65.5459 96.918 65.5225 97C65.5049 97.082 65.4639 97.1729 65.3994 97.2725C65.3936 97.3018 65.3643 97.334 65.3115 97.3691C65.2646 97.3984 65.2354 97.4131 65.2236 97.4131C65.2119 97.4131 65.1797 97.3984 65.127 97.3691C65.0742 97.334 65.0391 97.3018 65.0215 97.2725C64.9219 97.1904 64.8516 97.0762 64.8105 96.9297C64.7754 96.7832 64.752 96.625 64.7402 96.4551C64.7285 96.2793 64.7227 96.1006 64.7227 95.9189C64.7227 95.7373 64.7109 95.5703 64.6875 95.418C64.6699 95.2598 64.6318 95.1279 64.5732 95.0225C64.5146 94.917 64.4209 94.8525 64.292 94.8291C64.2451 94.8408 64.1719 94.8467 64.0723 94.8467C63.9727 94.8467 63.8643 94.8467 63.7471 94.8467C63.624 94.8467 63.5068 94.8467 63.3955 94.8467C63.29 94.8467 63.2197 94.8408 63.1846 94.8291C63.1553 94.8291 63.1084 94.8262 63.0439 94.8203C62.9795 94.8145 62.9121 94.8115 62.8418 94.8115C62.7773 94.8057 62.7129 94.7998 62.6484 94.7939C62.5898 94.7881 62.5488 94.7852 62.5254 94.7852C62.5195 94.7676 62.4961 94.7471 62.4551 94.7236C62.4141 94.7002 62.3877 94.6885 62.376 94.6885L62.2881 94.6885C62.1357 94.6885 61.9893 94.7266 61.8486 94.8027C61.7139 94.873 61.6318 94.9873 61.6025 95.1455C61.5967 95.1865 61.582 95.2686 61.5586 95.3916C61.541 95.5088 61.5205 95.6377 61.4971 95.7783C61.4795 95.9189 61.459 96.0566 61.4355 96.1914C61.418 96.3203 61.4062 96.417 61.4004 96.4814L61.4004 96.5342L61.4004 96.5957C61.4004 96.6426 61.4033 96.7188 61.4092 96.8242C61.415 96.9297 61.4209 97.0439 61.4268 97.167C61.4326 97.2842 61.4385 97.3984 61.4443 97.5098C61.4561 97.6152 61.4619 97.6885 61.4619 97.7295C61.4912 97.7764 61.5088 97.8115 61.5146 97.835C61.5205 97.8584 61.5234 97.8848 61.5234 97.9141C61.5234 98.1426 61.5117 98.3652 61.4883 98.582C61.4648 98.7988 61.4531 99.0273 61.4531 99.2676C61.4531 99.291 61.4531 99.3408 61.4531 99.417C61.459 99.4932 61.4619 99.5459 61.4619 99.5752C61.4678 99.5869 61.4824 99.6074 61.5059 99.6367C61.5293 99.6602 61.5527 99.6865 61.5762 99.7158C61.6055 99.7393 61.6348 99.7627 61.6641 99.7861C61.6934 99.8096 61.7139 99.8242 61.7256 99.8301C61.7314 99.8418 61.7578 99.8506 61.8047 99.8564C61.8574 99.8623 61.916 99.8682 61.9805 99.874C62.0449 99.874 62.1064 99.8799 62.165 99.8916C62.2295 99.8975 62.2793 99.9033 62.3145 99.9092C62.3848 99.9092 62.5049 99.9121 62.6748 99.918C62.8506 99.9238 63.0352 99.9297 63.2285 99.9355C63.4277 99.9414 63.6123 99.9473 63.7822 99.9531C63.958 99.9531 64.0811 99.9531 64.1514 99.9531C64.2217 99.9824 64.292 100.003 64.3623 100.015C64.4385 100.026 64.5117 100.032 64.582 100.032L64.8281 100.032L65.2236 100.032C65.2295 100.032 65.25 100.029 65.2852 100.023C65.3203 100.012 65.3584 100.003 65.3994 99.9971C65.4463 99.9854 65.4873 99.9766 65.5225 99.9707C65.5576 99.959 65.5781 99.9531 65.584 99.9531L67.2539 99.9531C67.3184 99.9355 67.3799 99.9033 67.4385 99.8564C67.4971 99.8037 67.5527 99.748 67.6055 99.6895C67.6582 99.625 67.7051 99.5605 67.7461 99.4961C67.7871 99.4258 67.8223 99.3643 67.8516 99.3115C67.8691 99.2939 67.8926 99.2529 67.9219 99.1885C67.957 99.124 67.9893 99.0566 68.0186 98.9863C68.0537 98.9102 68.0859 98.8398 68.1152 98.7754C68.1445 98.7109 68.1621 98.6729 68.168 98.6611C68.1797 98.6436 68.2061 98.6084 68.2471 98.5557C68.2881 98.5029 68.3086 98.4707 68.3086 98.459C68.3145 98.4473 68.3262 98.415 68.3438 98.3623C68.3613 98.3096 68.3701 98.2773 68.3701 98.2656C68.376 98.2598 68.3906 98.2422 68.4141 98.2129C68.4434 98.1836 68.4727 98.1543 68.502 98.125C68.5312 98.0957 68.5576 98.0664 68.5811 98.0371C68.6045 98.0078 68.6191 97.9873 68.625 97.9756C68.6309 97.9697 68.6426 97.9521 68.6602 97.9229C68.6836 97.8877 68.7041 97.8496 68.7217 97.8086C68.7451 97.7617 68.7627 97.7207 68.7744 97.6855C68.792 97.6445 68.8037 97.6182 68.8096 97.6064C68.8213 97.583 68.8535 97.5479 68.9062 97.501C68.9648 97.4541 68.9971 97.4248 69.0029 97.4131C69.0146 97.4014 69.0293 97.3926 69.0469 97.3867C69.0645 97.375 69.0791 97.3633 69.0908 97.3516C69.1084 97.3398 69.126 97.3311 69.1436 97.3252C69.167 97.3369 69.2021 97.3662 69.249 97.4131C69.2959 97.46 69.3311 97.4951 69.3545 97.5186L69.3545 97.5625C69.3545 97.6328 69.3428 97.7002 69.3193 97.7646C69.3018 97.8291 69.293 97.8936 69.293 97.958C69.293 98.04 69.3018 98.1133 69.3193 98.1777C69.3428 98.2363 69.3545 98.3066 69.3545 98.3887L69.3545 98.459C69.3545 98.4766 69.3428 98.5088 69.3193 98.5557C69.3018 98.6025 69.293 98.6377 69.293 98.6611L69.293 99.6895C69.2871 99.7598 69.2783 99.8506 69.2666 99.9619C69.2549 100.067 69.2314 100.17 69.1963 100.27C69.1611 100.363 69.1113 100.445 69.0469 100.516C68.9824 100.586 68.8975 100.621 68.792 100.621L68.748 100.621C68.7305 100.615 68.7012 100.609 68.6602 100.604C68.6191 100.598 68.5781 100.592 68.5371 100.586C68.4961 100.58 68.458 100.574 68.4229 100.568C68.3936 100.562 68.376 100.56 68.3701 100.56L68.3174 100.524C68.2822 100.501 68.2646 100.486 68.2646 100.48L68.2119 100.48L68.168 100.48C67.9629 100.551 67.7695 100.586 67.5879 100.586C67.4062 100.586 67.2158 100.598 67.0166 100.621C66.999 100.621 66.9668 100.624 66.9199 100.63C66.873 100.636 66.8203 100.642 66.7617 100.647C66.709 100.659 66.6592 100.671 66.6123 100.683C66.5654 100.694 66.5361 100.703 66.5244 100.709L66.4805 100.709C66.375 100.709 66.2754 100.694 66.1816 100.665C66.0938 100.636 65.9912 100.621 65.874 100.621C65.8623 100.621 65.8301 100.621 65.7773 100.621C65.7305 100.615 65.6748 100.612 65.6104 100.612C65.5518 100.612 65.4902 100.612 65.4258 100.612C65.3672 100.606 65.3174 100.604 65.2764 100.604Z" fill="#151618" fill-opacity="1.000000" fill-rule="evenodd"/>
</svg>
