<svg width="60.000000" height="60.000000" viewBox="0 0 60 60" fill="none" xmlns="http://www.w3.org/2000/svg" xmlns:xlink="http://www.w3.org/1999/xlink">
	<desc>
			Created with Pixso.
	</desc>
	<defs/>
	<path id="Vector" d="M30 0C13.458 0 0 13.458 0 30L0 42.429C0 45.501 2.69104 48 6 48L9 48C9.79565 48 10.5587 47.684 11.1213 47.1213C11.684 46.5587 12 45.7957 12 45L12 29.571C12 28.7754 11.684 28.0123 11.1213 27.4497C10.5587 26.8871 9.79565 26.571 9 26.571L6.276 26.571C7.94397 14.9611 17.934 6 30 6C42.066 6 52.056 14.9611 53.724 26.571L51 26.571C50.2043 26.571 49.4413 26.8871 48.8787 27.4497C48.316 28.0123 48 28.7754 48 29.571L48 48C48 51.309 45.309 54 42 54L36 54L36 51L24 51L24 60L42 60C48.618 60 54 54.618 54 48C57.309 48 60 45.501 60 42.429L60 30C60 13.458 46.542 0 30 0Z" fill="#754E29" fill-opacity="1.000000" fill-rule="nonzero"/>
</svg>
